<svg xmlns="http://www.w3.org/2000/svg" xmlns:xlink="http://www.w3.org/1999/xlink" width="215" height="114" viewBox="0 0 215 114">
  <defs>
    <clipPath id="clip-_7_4">
      <rect width="215" height="114"/>
    </clipPath>
  </defs>
  <g id="_7_4" data-name="7 – 4" clip-path="url(#clip-_7_4)">
    <g id="MongoDB" transform="translate(19.266 30.669)">
      <path id="Path_97365" data-name="Path 97365" d="M25.4,21.914c-2.28-10.059-7.033-12.737-8.245-14.63A21.532,21.532,0,0,1,15.832,4.69a2.641,2.641,0,0,1-.941,2.134c-1.525,1.36-8,6.638-8.547,18.067C5.835,35.548,14.177,42.119,15.279,42.8a2.449,2.449,0,0,0,2.383-.374c4.021-2.76,9.516-10.117,7.745-20.51" transform="translate(0)" fill="#fff"/>
      <path id="Path_97366" data-name="Path 97366" d="M67.394,222.46a21.908,21.908,0,0,1-.894,5.677s.35,2.511.6,5.171h.87a48.367,48.367,0,0,1,.949-5.569C67.788,227.186,67.437,224.774,67.394,222.46Z" transform="translate(-51.217 -185.336)" fill="#fff"/>
      <path id="Path_97367" data-name="Path 97367" d="M72.632,43.7h0c-1.138-.526-1.467-2.988-1.518-5.281a108.1,108.1,0,0,0,.246-11.371c-.06-1.99.028-18.429-.49-20.836a20,20,0,0,0,1.223,2.367c1.212,1.894,5.966,4.572,8.245,14.631C82.113,33.583,76.649,40.921,72.632,43.7Z" transform="translate(-54.936 -1.294)" fill="#fff"/>
      <path id="Path_97368" data-name="Path 97368" d="M1075.582,205.262a2.471,2.471,0,1,1,2.471-2.505,2.44,2.44,0,0,1-2.471,2.505m0-4.718a2.249,2.249,0,1,0,2.234,2.255,2.212,2.212,0,0,0-2.234-2.255m.6,3.81-.637-1.375h-.514v1.375h-.374v-3.128h.922c.686,0,.972.3.972.874a.76.76,0,0,1-.618.833l.658,1.416Zm-1.136-1.7h.541c.438,0,.6-.149.6-.548s-.159-.535-.652-.535h-.493Z" transform="translate(-907.908 -166.494)" fill="#fff"/>
      <path id="Path_97369" data-name="Path 97369" d="M803.048,118.423a5.672,5.672,0,0,0,3.183.755,6.2,6.2,0,0,0,4.486-1.6c1.489-1.354,2.514-3.426,2.514-6.733,0-3.178-1.209-5.758-3.691-7.268a9.873,9.873,0,0,0-5.283-1.227,4.385,4.385,0,0,0-1.558.189.818.818,0,0,0-.287.447c-.063.566-.063,4.876-.063,7.424,0,2.612,0,6.255.063,6.7a1.929,1.929,0,0,0,.636,1.321m-6.351-17.5c.541,0,2.6.094,3.552.094,1.787,0,3.022-.094,6.362-.094a10.3,10.3,0,0,1,6.841,2.2,9.161,9.161,0,0,1,3.128,7.206,9.351,9.351,0,0,1-3.883,8.086c-1.936,1.448-4.455,2.265-8.043,2.265-1.909,0-5.187-.063-7.923-.094h-.057c-.128-.252.234-1.233.457-1.259a4.048,4.048,0,0,0,1.284-.255c.578-.237.713-.532.777-1.57.1-1.951.064-4.279.064-6.923,0-1.887.031-5.569-.031-6.733-.1-.974-.508-1.226-1.34-1.415a17.319,17.319,0,0,0-1.787-.283c-.063-.189.426-1.043.585-1.227" transform="translate(-672.147 -81.906)" fill="#fff"/>
      <path id="Path_97370" data-name="Path 97370" d="M950.674,102.841c-.127.031-.286.347-.286.5-.033,1.133-.064,4.09-.064,6.135a.2.2,0,0,0,.159.158c.413.031,1.431.064,2.291.064a5.442,5.442,0,0,0,2.291-.347,2.967,2.967,0,0,0,1.489-2.8c0-2.737-1.909-3.776-4.741-3.776a8.539,8.539,0,0,0-1.145.063m7.223,12.585c0-2.769-2.037-4.341-5.761-4.341a14.542,14.542,0,0,0-1.622.031c-.1.031-.191.094-.191.158,0,1.982-.033,5.159.064,6.418a2.123,2.123,0,0,0,.922,1.51,6.4,6.4,0,0,0,2.45.346,3.824,3.824,0,0,0,4.137-4.121M944.925,101.3c.287,0,1.133.094,3.3.094,2.036,0,3.691-.063,5.66-.063,2.45,0,5.822.882,5.822,4.531a4.415,4.415,0,0,1-2.927,3.933c-.1.031-.1.094,0,.125,2.355.6,4.422,2.045,4.422,4.814,0,2.706-1.686,4.406-4.136,5.475a13.131,13.131,0,0,1-5.213.88c-1.431,0-5.268-.149-7.4-.125-.223-.094.2-1.1.395-1.259a5.865,5.865,0,0,0,1.443-.226c.763-.188.853-.433.949-1.567.064-.976.064-4.468.064-6.954,0-3.4.033-5.694,0-6.827-.031-.88-.35-1.165-.955-1.321-.477-.1-1.272-.189-1.908-.283-.159-.158.331-1.1.489-1.227" transform="translate(-798.354 -82.221)" fill="#fff"/>
      <path id="Path_97371" data-name="Path 97371" d="M180.046,158.547a1.379,1.379,0,0,1-.1-.636.809.809,0,0,1,.1-.424,10.8,10.8,0,0,0,1.221-.249c.563-.14.774-.447.807-1.165.092-1.7.1-4.879.066-7.116v-.066a.906.906,0,0,0-.3-.8,6.4,6.4,0,0,0-1.687-.745c-.267-.079-.414-.219-.407-.383s.176-.357.523-.426a20.073,20.073,0,0,0,4.286-1.108.629.629,0,0,1,.127.447c0,.1-.015.2-.025.31-.027.316-.057.675-.057,1.032a.235.235,0,0,0,.4.136,7.9,7.9,0,0,1,4.255-1.921,3.66,3.66,0,0,1,3.253,2,.219.219,0,0,0,.185.109.211.211,0,0,0,.173-.092,8.523,8.523,0,0,1,4.408-2.012c2.6,0,4.16,1.95,4.16,5.213,0,.938-.009,2.128-.018,3.238-.007.974-.015,1.887-.015,2.518a.871.871,0,0,0,.514.663,6.583,6.583,0,0,0,1.626.4h.027a2.42,2.42,0,0,1-.164,1.065c-.173,0-.411-.015-.709-.03-.541-.027-1.282-.064-2.145-.064-1.731,0-2.635.033-3.5.089a2.619,2.619,0,0,1-.009-1.059,9.166,9.166,0,0,0,1.06-.231c.551-.182.71-.432.745-1.163.013-.52.113-5.1-.064-6.187a2.768,2.768,0,0,0-2.87-2.447,5.052,5.052,0,0,0-2.863,1.092.417.417,0,0,0-.1.27v.022a11.711,11.711,0,0,1,.125,2.307c0,.6,0,1.217-.007,1.838-.007,1.263-.013,2.454.007,3.356a.845.845,0,0,0,.67.879c.162.036.29.067.42.1.249.061.508.124.894.185a1.711,1.711,0,0,1-.015.792.634.634,0,0,1-.112.27c-.962-.033-1.95-.061-3.375-.061-.432,0-1.136.018-1.759.034-.5.013-.981.027-1.253.028a1.227,1.227,0,0,1-.1-.548.95.95,0,0,1,.1-.512l.383-.07c.334-.06.623-.11.894-.179.471-.149.648-.405.682-1.005a47.287,47.287,0,0,0-.034-6.444,2.645,2.645,0,0,0-2.742-2.443,5.159,5.159,0,0,0-2.863,1.09.873.873,0,0,0-.264.648v1.667c0,2.026-.013,4.547.036,5.637a.893.893,0,0,0,.779.882c.139.04.377.079.654.125.159.027.334.055.514.088a2.258,2.258,0,0,1-.085,1.065c-.277,0-.618-.018-1.008-.034-.6-.027-1.34-.06-2.182-.06-.995,0-1.687.033-2.243.06-.374.018-.7.033-1.02.034" transform="translate(-147.598 -119.779)" fill="#fff"/>
      <path id="Path_97372" data-name="Path 97372" d="M362.047,146.847a2.714,2.714,0,0,0-1.519.427c-1.105.672-1.668,2.014-1.668,3.986,0,3.691,1.848,6.269,4.495,6.269a2.83,2.83,0,0,0,1.939-.687c.813-.663,1.245-2.018,1.245-3.916,0-3.636-1.807-6.08-4.495-6.08m.509,12.05c-4.781,0-6.483-3.507-6.483-6.788a6.07,6.07,0,0,1,2.785-5.327,8.506,8.506,0,0,1,4.3-1.272,6.018,6.018,0,0,1,6.2,6.38,6.6,6.6,0,0,1-2.943,5.829,8.348,8.348,0,0,1-3.857,1.178" transform="translate(-297.659 -119.847)" fill="#fff"/>
      <path id="Path_97373" data-name="Path 97373" d="M688.864,146.847a2.707,2.707,0,0,0-1.522.427c-1.105.672-1.668,2.014-1.668,3.986,0,3.691,1.848,6.269,4.495,6.269a2.83,2.83,0,0,0,1.945-.687c.813-.663,1.244-2.018,1.244-3.916,0-3.636-1.805-6.08-4.493-6.08m.509,12.05c-4.781,0-6.483-3.507-6.483-6.787a6.067,6.067,0,0,1,2.787-5.329,8.489,8.489,0,0,1,4.3-1.272,6.018,6.018,0,0,1,6.2,6.379,6.6,6.6,0,0,1-2.943,5.829,8.331,8.331,0,0,1-3.858,1.18" transform="translate(-575.804 -119.847)" fill="#fff"/>
      <path id="Path_97374" data-name="Path 97374" d="M583.575,146.654c-1.473,0-2.426,1.163-2.426,2.964s.821,3.941,3.128,3.941a2.245,2.245,0,0,0,1.47-.567,3.678,3.678,0,0,0,.894-2.587c0-2.349-1.144-3.75-3.058-3.75m-.191,12.427a2.426,2.426,0,0,0-1.191.3c-1.166.745-1.707,1.489-1.707,2.355a2.514,2.514,0,0,0,.99,2.027,5.021,5.021,0,0,0,3.376,1.032c2.858,0,4.139-1.537,4.139-3.059a2.169,2.169,0,0,0-1.626-2.173,12.76,12.76,0,0,0-3.977-.478m.191,7.3a6.171,6.171,0,0,1-4.008-1.175,3.756,3.756,0,0,1-1.489-2.782,2.176,2.176,0,0,1,.563-1.415,14.8,14.8,0,0,1,2.591-2.076.137.137,0,0,0,.083-.127.133.133,0,0,0-.1-.131,2.737,2.737,0,0,1-1.836-1.787.154.154,0,0,0-.013-.07.413.413,0,0,1,.167-.514c.185-.131.48-.307.8-.493a10.705,10.705,0,0,0,1.279-.833.21.21,0,0,0-.054-.328,4.114,4.114,0,0,1-2.934-4.319,4.294,4.294,0,0,1,1.8-3.534,8.221,8.221,0,0,1,4.032-1.367h.074a8.312,8.312,0,0,1,3.077.685,4.891,4.891,0,0,0,1.82.289,2.452,2.452,0,0,0,1.969-.745,1.708,1.708,0,0,1,.1.563,2.118,2.118,0,0,1-.354,1.293,1.606,1.606,0,0,1-1.223.532,1.018,1.018,0,0,1-.149-.007,4.015,4.015,0,0,1-.745-.124l-.122.043c-.039.057-.013.119.018.2a.252.252,0,0,1,.018.049,8.714,8.714,0,0,1,.177,1.206,4.507,4.507,0,0,1-1.9,4.072,6.488,6.488,0,0,1-3.277,1.269h0c-.025,0-.149.01-.381.031-.149.013-.343.031-.371.031h-.028c-.214.06-.775.326-.775.822,0,.411.253.922,1.464,1.014l.783.055a24.1,24.1,0,0,1,4.529.567,3.137,3.137,0,0,1,2.1,3.019c0,2.078-1.477,4.032-3.951,5.226a8.587,8.587,0,0,1-3.737.839" transform="translate(-486.613 -119.779)" fill="#fff"/>
      <path id="Path_97375" data-name="Path 97375" d="M475.638,157.183a5.683,5.683,0,0,1-1.814-.472.834.834,0,0,1-.223-.447c-.064-.976-.064-3.807-.064-5.66a6.761,6.761,0,0,0-.894-3.776,3.829,3.829,0,0,0-3.245-1.7,7.536,7.536,0,0,0-4.263,2.014c-.033.031-.243.231-.238-.079s.052-.938.082-1.34a.689.689,0,0,0-.208-.584,18.965,18.965,0,0,1-4.328,1.133c-.676.131-.847.782-.125,1.007h.01a6.175,6.175,0,0,1,1.638.721.859.859,0,0,1,.255.786c.031,2.107.031,5.348-.064,7.11-.031.693-.223.944-.733,1.071l.048-.016a9.9,9.9,0,0,1-1.178.22,1.716,1.716,0,0,0,0,1.258c.319,0,1.936-.094,3.277-.094,1.844,0,2.8.094,3.277.094a1.755,1.755,0,0,0,.128-1.258,6.7,6.7,0,0,1-1.306-.189c-.508-.125-.636-.378-.667-.943-.063-1.48-.063-4.626-.063-6.766a1.26,1.26,0,0,1,.349-1.043,4.193,4.193,0,0,1,2.609-.943,2.847,2.847,0,0,1,1.936.66,2.7,2.7,0,0,1,.911,1.778c.127,1.191.094,3.588.094,5.66,0,1.133-.094,1.418-.508,1.543a5.138,5.138,0,0,1-1.3.252,1.716,1.716,0,0,0,0,1.258c.827,0,1.787-.094,3.181-.094,1.75,0,2.864.094,3.309.094a1.751,1.751,0,0,0,.128-1.258" transform="translate(-385.982 -119.523)" fill="#fff"/>
    </g>
  </g>
</svg>
