<svg xmlns="http://www.w3.org/2000/svg" xmlns:xlink="http://www.w3.org/1999/xlink" width="215" height="114" viewBox="0 0 215 114">
  <defs>
    <clipPath id="clip-_7_2">
      <rect width="215" height="114"/>
    </clipPath>
  </defs>
  <g id="_7_2" data-name="7 – 2" clip-path="url(#clip-_7_2)">
    <path id="Laravel" d="M59.827,10.459V30.932h7.46v3.531H55.855v-24ZM81.309,20.643V18.484h3.764V34.463H81.308V32.3a5.173,5.173,0,0,1-2.159,1.886,6.338,6.338,0,0,1-2.814.685,8.235,8.235,0,0,1-3.35-.668,7.835,7.835,0,0,1-2.608-1.834,8.566,8.566,0,0,1-2.3-5.9,8.627,8.627,0,0,1,.6-3.206,8.483,8.483,0,0,1,1.692-2.691,7.842,7.842,0,0,1,2.608-1.835,8.22,8.22,0,0,1,3.35-.669,6.335,6.335,0,0,1,2.815.687,5.188,5.188,0,0,1,2.159,1.885Zm-.346,7.784a5.692,5.692,0,0,0,0-3.91A4.95,4.95,0,0,0,80,22.907a4.679,4.679,0,0,0-1.5-1.1,4.565,4.565,0,0,0-1.952-.411,4.445,4.445,0,0,0-1.934.411,4.655,4.655,0,0,0-2.434,2.709,5.981,5.981,0,0,0,0,3.909,4.653,4.653,0,0,0,2.434,2.71,4.433,4.433,0,0,0,1.934.411,4.562,4.562,0,0,0,1.952-.41,4.67,4.67,0,0,0,1.5-1.1,4.945,4.945,0,0,0,.966-1.612Zm7.08,6.035V18.483H98.267v3.678H91.807v12.3Zm23.866-13.819V18.484h3.764V34.463h-3.765V32.3a5.178,5.178,0,0,1-2.159,1.886,6.338,6.338,0,0,1-2.814.685,8.232,8.232,0,0,1-3.35-.668,7.835,7.835,0,0,1-2.608-1.834,8.566,8.566,0,0,1-2.3-5.9,8.609,8.609,0,0,1,.6-3.206,8.483,8.483,0,0,1,1.692-2.691,7.842,7.842,0,0,1,2.608-1.835,8.218,8.218,0,0,1,3.35-.669,6.335,6.335,0,0,1,2.815.687,5.194,5.194,0,0,1,2.159,1.885Zm-.346,7.784a5.706,5.706,0,0,0,0-3.91,4.95,4.95,0,0,0-.967-1.611,4.679,4.679,0,0,0-1.5-1.1,4.559,4.559,0,0,0-1.951-.411,4.446,4.446,0,0,0-1.934.411,4.66,4.66,0,0,0-2.435,2.709,5.981,5.981,0,0,0,0,3.909,4.659,4.659,0,0,0,2.435,2.71,4.433,4.433,0,0,0,1.934.411,4.555,4.555,0,0,0,1.951-.41,4.67,4.67,0,0,0,1.5-1.1,4.945,4.945,0,0,0,.967-1.612Zm19.2-9.944h3.813L128.4,34.462h-4.73l-6.179-15.979H121.3l4.731,12.236Zm12.023-.41c5.126,0,8.622,4.51,7.965,9.789H138.265A4.508,4.508,0,0,0,143,31.905a6.724,6.724,0,0,0,4.784-2.5l2.543,1.954c-2.273,2.411-4.135,3.518-7.051,3.518-5.21,0-8.741-3.273-8.741-8.4A8.3,8.3,0,0,1,142.788,18.073Zm-4.514,7.012H147.3a4.43,4.43,0,0,0-4.538-4.043A4.365,4.365,0,0,0,138.275,25.085Zm14.931,9.378v-24h3.765v24ZM44.4,10.272a.714.714,0,0,1,.025.186V20.2a.71.71,0,0,1-.36.616l-8.238,4.71v9.335a.71.71,0,0,1-.36.616l-17.2,9.831a.723.723,0,0,1-.125.052c-.017.005-.032.015-.048.02a.724.724,0,0,1-.368,0c-.02-.005-.037-.016-.056-.023a.641.641,0,0,1-.118-.048L.359,35.482A.71.71,0,0,1,0,34.865V5.626a.714.714,0,0,1,.025-.186.6.6,0,0,1,.025-.06A.8.8,0,0,1,.1,5.27a.681.681,0,0,1,.048-.062.744.744,0,0,1,.064-.084.7.7,0,0,1,.07-.054.757.757,0,0,1,.079-.06h0L8.957.095a.723.723,0,0,1,.714,0l8.6,4.915h0c.029.018.052.041.079.061a.685.685,0,0,1,.07.054.824.824,0,0,1,.064.083.668.668,0,0,1,.049.063.8.8,0,0,1,.046.111c.007.02.019.038.025.06a.714.714,0,0,1,.024.186V23.888l7.166-4.1V10.457a.714.714,0,0,1,.024-.186c.006-.021.018-.039.026-.06a.7.7,0,0,1,.046-.111.56.56,0,0,1,.049-.062A.662.662,0,0,1,26,9.956a.685.685,0,0,1,.07-.054.645.645,0,0,1,.079-.061h0l8.6-4.915a.721.721,0,0,1,.715,0l8.6,4.915h0a.944.944,0,0,1,.08.061c.022.018.049.034.07.054a.7.7,0,0,1,.063.083.667.667,0,0,1,.049.063.707.707,0,0,1,.046.111.5.5,0,0,1,.025.06Zm-1.408,9.52v-8.1l-3.009,1.72-4.156,2.376v8.1l7.164-4.1Zm-8.6,14.661v-8.11L30.3,28.661,18.629,35.277v8.186l15.764-9.011ZM1.433,6.856v27.6L17.2,43.464V35.28L8.961,30.653l0,0h0a.7.7,0,0,1-.077-.059.813.813,0,0,1-.069-.052l0,0a.68.68,0,0,1-.059-.075.647.647,0,0,1-.054-.069v0a.569.569,0,0,1-.037-.089.483.483,0,0,1-.034-.079h0a.684.684,0,0,1-.015-.1.79.79,0,0,1-.011-.08V10.952L4.443,8.577ZM9.314,1.532l-7.162,4.1L9.314,9.72l7.162-4.094L9.314,1.532Zm3.726,25.55L17.2,24.707V6.856l-3.008,1.72-4.157,2.376V28.8l3.009-1.72ZM35.109,6.364l-7.162,4.093,7.162,4.094,7.162-4.094L35.109,6.364Zm-.716,9.42-4.157-2.376-3.008-1.72v8.1l4.156,2.376,3.009,1.72V15.783ZM17.911,34.047l10.505-5.954,5.251-2.976-7.157-4.092L18.27,25.735l-7.51,4.293Z" transform="translate(29.014 34.296)" fill="#fff" fill-rule="evenodd"/>
  </g>
</svg>
