<svg xmlns="http://www.w3.org/2000/svg" xmlns:xlink="http://www.w3.org/1999/xlink" width="215" height="114" viewBox="0 0 215 114">
  <defs>
    <clipPath id="clip-path">
      <rect id="Rectangle_12018" data-name="Rectangle 12018" width="121.806" height="63.517" fill="#fff"/>
    </clipPath>
    <clipPath id="clip-path-2">
      <rect id="Rectangle_12019" data-name="Rectangle 12019" width="121.813" height="63.517" fill="#fff"/>
    </clipPath>
    <clipPath id="clip-_7_3">
      <rect width="215" height="114"/>
    </clipPath>
  </defs>
  <g id="_7_3" data-name="7 – 3" clip-path="url(#clip-_7_3)">
    <g id="Php" transform="translate(46.593 25.242)">
      <g id="Group_30648" data-name="Group 30648">
        <g id="Group_30647" data-name="Group 30647" clip-path="url(#clip-path)">
          <path id="Path_97363" data-name="Path 97363" d="M121.813,32.36c0,8.409-6.417,16.473-17.839,22.419S77.06,64.064,60.907,64.064s-31.645-3.34-43.068-9.286S0,40.768,0,32.36,6.417,15.887,17.839,9.941,44.753.655,60.907.655,92.552,4,103.974,9.941s17.839,14.01,17.839,22.418" transform="translate(0 -0.612)" fill="#fff" fill-rule="evenodd" opacity="0.15"/>
        </g>
      </g>
      <g id="Group_30650" data-name="Group 30650">
        <g id="Group_30649" data-name="Group 30649" clip-path="url(#clip-path-2)">
          <path id="Path_97364" data-name="Path 97364" d="M263.27,165.213l6.675-33.791H285.38c6.674.417,10.012,3.754,10.012,9.6,0,10.012-7.926,15.853-15.018,15.435h-7.508l-1.669,8.761ZM274.533,150.2l2.086-12.515h5.423c2.92,0,5.006,1.251,5.006,3.754-.417,7.092-3.754,8.344-7.508,8.761Zm19.307,6.257,6.675-33.79h7.926l-1.669,8.76h7.509c6.675.417,9.178,3.754,8.344,7.926l-2.92,17.1h-8.343l2.92-15.435c.417-2.086.417-3.337-2.5-3.337h-6.258l-3.754,18.772Zm25.33,8.761,6.675-33.791h15.435c6.675.417,10.013,3.754,10.013,9.6,0,10.012-7.927,15.853-15.018,15.435h-7.509l-1.669,8.761ZM330.434,150.2l2.086-12.515h5.423c2.92,0,5.006,1.251,5.006,3.754-.417,7.092-3.754,8.344-7.509,8.761Z" transform="translate(-246.166 -114.693)" fill="#fff" fill-rule="evenodd"/>
        </g>
      </g>
    </g>
  </g>
</svg>
