<svg xmlns="http://www.w3.org/2000/svg" xmlns:xlink="http://www.w3.org/1999/xlink" width="215" height="114" viewBox="0 0 215 114">
  <defs>
    <clipPath id="clip-_7_5">
      <rect width="215" height="114"/>
    </clipPath>
  </defs>
  <g id="_7_5" data-name="7 – 5" clip-path="url(#clip-_7_5)">
    <g id="Python" transform="translate(28.173 36.56)">
      <path id="Path_97353" data-name="Path 97353" d="M159.7,42.332q0-6.783-3.87-6.972a7.266,7.266,0,0,0-3,.493,4.412,4.412,0,0,0-1.577.832v10.8a7.664,7.664,0,0,0,4.391,1.441q4.055-.268,4.056-6.59Zm3.18.188a9.591,9.591,0,0,1-1.622,5.721,5.983,5.983,0,0,1-5.022,2.649,8.9,8.9,0,0,1-4.985-1.514v9.811l-2.767-.987V36.423a6.182,6.182,0,0,1,1.747-1.441,11.991,11.991,0,0,1,6-1.477l.039.039a5.5,5.5,0,0,1,4.975,2.649,11.26,11.26,0,0,1,1.632,6.326Z" transform="translate(-98.517 -20.852)" fill="#fff"/>
      <path id="Path_97354" data-name="Path 97354" d="M218.433,48.966q0,4.623-.926,6.4a6.529,6.529,0,0,1-3.544,2.839,13.578,13.578,0,0,1-4.584.911l-.457-1.743a22.073,22.073,0,0,0,3.525-.681,4.657,4.657,0,0,0,2.767-2.083,10.457,10.457,0,0,0,.605-4.357v-.721a14.219,14.219,0,0,1-5.947,1.287,5.468,5.468,0,0,1-3.6-1.287,4.377,4.377,0,0,1-1.743-3.559V34.461l2.767-.948V45.1a3.522,3.522,0,0,0,1.2,2.861,4.53,4.53,0,0,0,3.1.966,7.76,7.76,0,0,0,4.071-1.477V33.93h2.767V48.964Z" transform="translate(-137.154 -20.858)" fill="#fff"/>
      <path id="Path_97355" data-name="Path 97355" d="M266.859,39.227c-.33.027-.633.039-.911.039a5.44,5.44,0,0,1-3.655-1.12,3.871,3.871,0,0,1-1.3-3.1v-10.9h-1.9V22.412h1.9V17.791l2.764-.984v5.606h3.109v1.741h-3.109V34.976a2.621,2.621,0,0,0,.835,2.2,4.227,4.227,0,0,0,2.273.608v1.441Z" transform="translate(-174.773 -9.34)" fill="#fff"/>
      <path id="Path_97356" data-name="Path 97356" d="M308.057,29.661H305.29V18.981a5.048,5.048,0,0,0-.76-2.8,2.765,2.765,0,0,0-2.437-1.326,8.976,8.976,0,0,0-4.758,2.007v12.8h-2.767V4.132l2.767-.872V14.887a9.64,9.64,0,0,1,5.8-1.931,4.617,4.617,0,0,1,3.559,1.477,5.2,5.2,0,0,1,1.365,3.674v11.55Z" transform="translate(-199.231)" fill="#fff"/>
      <path id="Path_97357" data-name="Path 97357" d="M358.395,41.9a8.5,8.5,0,0,0-.987-4.307,4.132,4.132,0,0,0-3.637-2.189q-4.55.263-4.547,6.516a10.713,10.713,0,0,0,.951,4.786,3.822,3.822,0,0,0,3.652,2.41Q358.4,49.08,358.4,41.9Zm3.03.018a9.835,9.835,0,0,1-1.9,6.174,6.814,6.814,0,0,1-5.758,2.764,6.683,6.683,0,0,1-5.686-2.764,9.971,9.971,0,0,1-1.856-6.174,8.818,8.818,0,0,1,2.007-5.873,6.916,6.916,0,0,1,5.568-2.537,7.03,7.03,0,0,1,5.609,2.537,8.814,8.814,0,0,1,2.007,5.873Z" transform="translate(-234.848 -20.856)" fill="#fff"/>
      <path id="Path_97358" data-name="Path 97358" d="M416.5,50.516h-2.767V39.231a3.774,3.774,0,0,0-1.117-2.9,4.057,4.057,0,0,0-2.975-1,6.655,6.655,0,0,0-3.752,1.287v13.9h-2.767V36.274A13.633,13.633,0,0,1,407.518,34a13.416,13.416,0,0,1,3.335-.493,8.661,8.661,0,0,1,1.856.191,5.339,5.339,0,0,1,2.652,1.4A3.708,3.708,0,0,1,416.5,37.83V50.516Z" transform="translate(-274.073 -20.855)" fill="#fff"/>
      <path id="Path_97359" data-name="Path 97359" d="M22.648,6.395a23.749,23.749,0,0,0-3.978.34C15.145,7.357,14.5,8.66,14.5,11.064v3.174h8.326V15.3H11.381a5.2,5.2,0,0,0-5.2,4.221,15.564,15.564,0,0,0,0,8.463C6.771,30.444,8.184,32.2,10.6,32.2h2.863v-3.8a5.293,5.293,0,0,1,5.2-5.174h8.317a4.2,4.2,0,0,0,4.165-4.23V11.062a4.651,4.651,0,0,0-4.165-4.329,25.984,25.984,0,0,0-4.339-.34Zm-4.5,2.553a1.587,1.587,0,1,1-1.562,1.592,1.58,1.58,0,0,1,1.562-1.592Z" transform="translate(0 -2.16)" fill="#fff"/>
      <path id="Path_97360" data-name="Path 97360" d="M51.973,35.05v3.7a5.341,5.341,0,0,1-5.2,5.28H38.455a4.248,4.248,0,0,0-4.165,4.23v7.929c0,2.257,1.962,3.584,4.165,4.23a13.929,13.929,0,0,0,8.317,0c2.1-.607,4.165-1.829,4.165-4.23V53.013H42.619V51.955H55.1c2.42,0,3.323-1.688,4.165-4.221a14.292,14.292,0,0,0,0-8.463c-.6-2.409-1.74-4.221-4.165-4.221H51.977ZM47.3,55.131a1.587,1.587,0,1,1-1.562,1.582A1.571,1.571,0,0,1,47.3,55.131Z" transform="translate(-19.785 -21.917)" fill="#fff"/>
      <path id="Path_97361" data-name="Path 97361" d="M461.049,19.351h.485V16.309h1.149v-.363H459.9v.363h1.149v3.042m2.064,0h.414V16.572l.9,2.778h.461l.937-2.769v2.769h.452v-3.4h-.6l-1.024,2.917-.874-2.917h-.669v3.4" transform="translate(-313.217 -8.746)" fill="#fff"/>
    </g>
  </g>
</svg>
