<?xml version="1.0" encoding="utf-8"?>
<!-- Generator: Adobe Illustrator 25.2.3, SVG Export Plug-In . SVG Version: 6.00 Build 0)  -->
<svg version="1.1" id="Layer_1" xmlns="http://www.w3.org/2000/svg" xmlns:xlink="http://www.w3.org/1999/xlink" x="0px" y="0px"
	 viewBox="0 0 128 128" style="enable-background:new 0 0 128 128;" xml:space="preserve">
<style type="text/css">
	.st0{fill:url(#SVGID_1_);}
	.st1{fill:url(#SVGID_2_);}
	.st2{fill:url(#SVGID_3_);}
</style>
<desc>Created with Sketch.</desc>
<g id="Icons_x2F_DevelopLogo_x2F_Ajs">
	<g id="Ajs" transform="translate(24.000000, 21.000000)">
		<g id="angular">
			<linearGradient id="SVGID_1_" gradientUnits="userSpaceOnUse" x1="0.39" y1="42.85" x2="80.17" y2="42.85">
				<stop  offset="0" style="stop-color:#4AA9FB"/>
				<stop  offset="0.3541" style="stop-color:#4B8CF6"/>
				<stop  offset="0.763" style="stop-color:#4D70F1"/>
				<stop  offset="1" style="stop-color:#4D65EF"/>
			</linearGradient>
			<path class="st0" d="M40.3,0L0.4,14.2L6.5,67l33.8,18.7L74.1,67l6.1-52.8L40.3,0z M55.8,65.4l-5-12.5H29.7l-5,12.5h-9.3L40.3,9.5
				l24.8,55.9H55.8z M33,45.2h14.6l-7.3-17.5L33,45.2z"/>
			<linearGradient id="SVGID_2_" gradientUnits="userSpaceOnUse" x1="40.28" y1="36.405" x2="47.56" y2="36.405">
				<stop  offset="0" style="stop-color:#4AA9FB"/>
				<stop  offset="0.3541" style="stop-color:#4B8CF6"/>
				<stop  offset="0.763" style="stop-color:#4D70F1"/>
				<stop  offset="1" style="stop-color:#4D65EF"/>
			</linearGradient>
			<polygon class="st1" points="47.6,45.2 40.3,45.2 40.3,27.6 			"/>
			<linearGradient id="SVGID_3_" gradientUnits="userSpaceOnUse" x1="40.28" y1="42.85" x2="80.17" y2="42.85">
				<stop  offset="0" style="stop-color:#4AA9FB"/>
				<stop  offset="0.3541" style="stop-color:#4B8CF6"/>
				<stop  offset="0.763" style="stop-color:#4D70F1"/>
				<stop  offset="1" style="stop-color:#4D65EF"/>
			</linearGradient>
			<polygon class="st2" points="80.2,14.2 74.1,67 40.3,85.7 40.3,52.9 50.8,52.9 55.8,65.4 65.1,65.4 40.3,9.5 40.3,0 			"/>
		</g>
	</g>
</g>
</svg>
