<?xml version="1.0" encoding="utf-8"?>
<!-- Generator: Adobe Illustrator 25.2.3, SVG Export Plug-In . SVG Version: 6.00 Build 0)  -->
<svg version="1.1" id="Layer_1" xmlns="http://www.w3.org/2000/svg" xmlns:xlink="http://www.w3.org/1999/xlink" x="0px" y="0px"
	 viewBox="0 0 128 128" style="enable-background:new 0 0 128 128;" xml:space="preserve">
<style type="text/css">
	.st0{fill:url(#path4_1_);}
</style>
<desc>Created with Sketch.</desc>
<g id="Icons_x2F_DevelopLogo_x2F_iOS">
	<g id="iOS" transform="translate(27.000000, 18.000000)">
		<g id="Apple_logo_black">
			<linearGradient id="path4_1_" gradientUnits="userSpaceOnUse" x1="0" y1="43" x2="73.3115" y2="43">
				<stop  offset="0" style="stop-color:#4AA9FB"/>
				<stop  offset="0.3541" style="stop-color:#4B8CF6"/>
				<stop  offset="0.763" style="stop-color:#4D70F1"/>
				<stop  offset="1" style="stop-color:#4D65EF"/>
			</linearGradient>
			<path id="path4" class="st0" d="M71.8,67c-1.3,3-2.9,5.8-4.7,8.3c-2.5,3.5-4.5,5.9-6,7.2c-2.4,2.2-5,3.3-7.7,3.4
				c-2,0-4.4-0.6-7.2-1.7c-2.8-1.1-5.4-1.7-7.7-1.7c-2.5,0-5.1,0.6-7.9,1.7c-2.8,1.1-5.1,1.7-6.8,1.8c-2.6,0.1-5.3-1-7.9-3.5
				c-1.7-1.4-3.8-3.9-6.3-7.5C6.8,71.3,4.5,67,2.8,62C0.9,56.6,0,51.4,0,46.4c0-5.8,1.3-10.7,3.8-14.9c2-3.3,4.6-6,7.9-7.9
				s6.9-2.9,10.7-3c2.1,0,4.9,0.6,8.3,1.9c3.4,1.3,5.6,1.9,6.6,1.9c0.7,0,3.2-0.8,7.3-2.3c3.9-1.4,7.2-2,9.9-1.7
				C61.8,21,67.3,23.9,71,29c-6.5,3.9-9.8,9.4-9.7,16.5c0.1,5.5,2.1,10.1,6,13.7c1.8,1.7,3.8,3,6,3.9C72.8,64.4,72.3,65.7,71.8,67z
				 M55,1.7c0,4.3-1.6,8.3-4.8,12c-3.8,4.4-8.5,7-13.5,6.6c-0.1-0.5-0.1-1.1-0.1-1.6c0-4.1,1.8-8.5,5-12.2c1.6-1.8,3.7-3.4,6.2-4.6
				c2.5-1.2,4.8-1.9,7-2C55,0.6,55,1.1,55,1.7L55,1.7z"/>
		</g>
	</g>
</g>
</svg>
