<?xml version="1.0" encoding="utf-8"?>
<!-- Generator: Adobe Illustrator 25.2.3, SVG Export Plug-In . SVG Version: 6.00 Build 0)  -->
<svg version="1.1" id="Layer_1" xmlns="http://www.w3.org/2000/svg" xmlns:xlink="http://www.w3.org/1999/xlink" x="0px" y="0px"
	 viewBox="0 0 128 128" style="enable-background:new 0 0 128 128;" xml:space="preserve">
<style type="text/css">
	.st0{fill:url(#Shape_1_);}
	.st1{fill-rule:evenodd;clip-rule:evenodd;fill:url(#Path_2_);}
	.st2{fill-rule:evenodd;clip-rule:evenodd;fill:url(#Path_3_);}
</style>
<desc>Created with Sketch.</desc>
<g id="Icons_x2F_DevelopLogo_x2F_Aws">
	<g id="Aws" transform="translate(14.000000, 37.000000)">
		<g id="Amazon_Web_Services_Logo">
			<linearGradient id="Shape_1_" gradientUnits="userSpaceOnUse" x1="4.3781" y1="15.741" x2="96.5513" y2="15.741">
				<stop  offset="0" style="stop-color:#4AA9FB"/>
				<stop  offset="0.3541" style="stop-color:#4B8CF6"/>
				<stop  offset="0.763" style="stop-color:#4D70F1"/>
				<stop  offset="1" style="stop-color:#4D65EF"/>
			</linearGradient>
			<path id="Shape" class="st0" d="M28.5,21.9c0,1.2,0.1,2.2,0.4,3c0.3,0.7,0.6,1.5,1.1,2.4c0.2,0.3,0.2,0.5,0.2,0.8
				c0,0.3-0.2,0.7-0.6,1l-2.1,1.4c-0.3,0.2-0.6,0.3-0.9,0.3c-0.3,0-0.7-0.2-1-0.5c-0.5-0.5-0.9-1-1.2-1.6c-0.3-0.6-0.7-1.2-1-2
				c-2.6,3.1-5.9,4.6-9.8,4.6c-2.8,0-5-0.8-6.7-2.4s-2.5-3.7-2.5-6.4c0-2.8,1-5.1,3-6.9s4.7-2.6,8.2-2.6c1.1,0,2.3,0.1,3.5,0.3
				c1.2,0.2,2.5,0.4,3.8,0.7v-2.4c0-2.5-0.5-4.3-1.6-5.3c-1.1-1-2.9-1.5-5.4-1.5c-1.2,0-2.4,0.1-3.6,0.4c-1.2,0.3-2.4,0.7-3.6,1.1
				C8.2,6.5,7.8,6.6,7.6,6.7C7.4,6.8,7.2,6.8,7.1,6.8c-0.5,0-0.7-0.3-0.7-1V4.1c0-0.5,0.1-0.9,0.2-1.2c0.2-0.2,0.5-0.5,0.9-0.7
				c1.2-0.6,2.6-1.1,4.2-1.5c1.6-0.4,3.4-0.6,5.2-0.6c4,0,6.9,0.9,8.8,2.7c1.8,1.8,2.8,4.5,2.8,8.2L28.5,21.9L28.5,21.9z M15,26.9
				c1.1,0,2.2-0.2,3.4-0.6c1.2-0.4,2.3-1.1,3.2-2.1c0.5-0.6,0.9-1.3,1.1-2.1s0.3-1.8,0.3-2.9v-1.4c-1-0.2-2-0.4-3.1-0.6
				C18.9,17,17.9,17,16.8,17c-2.2,0-3.9,0.4-5,1.3c-1.1,0.9-1.6,2.2-1.6,3.8c0,1.6,0.4,2.7,1.2,3.5C12.3,26.5,13.4,26.9,15,26.9z
				 M41.8,30.5c-0.6,0-1-0.1-1.3-0.3c-0.3-0.2-0.5-0.7-0.7-1.3L32,3.1c-0.2-0.7-0.3-1.1-0.3-1.3c0-0.5,0.3-0.8,0.8-0.8h3.3
				c0.6,0,1.1,0.1,1.3,0.3c0.3,0.2,0.5,0.7,0.7,1.3l5.6,22.1l5.2-22.1c0.2-0.7,0.4-1.1,0.6-1.3c0.3-0.2,0.7-0.3,1.3-0.3h2.7
				c0.6,0,1.1,0.1,1.3,0.3c0.3,0.2,0.5,0.7,0.6,1.3l5.3,22.4l5.8-22.4c0.2-0.7,0.4-1.1,0.7-1.3c0.3-0.2,0.7-0.3,1.3-0.3h3.1
				c0.5,0,0.8,0.3,0.8,0.8c0,0.2,0,0.3-0.1,0.5c0,0.2-0.1,0.5-0.2,0.8l-8.1,25.8c-0.2,0.7-0.4,1.1-0.7,1.3c-0.3,0.2-0.7,0.3-1.3,0.3
				H59c-0.6,0-1.1-0.1-1.3-0.3c-0.3-0.2-0.5-0.7-0.6-1.3L51.8,7.4l-5.1,21.5c-0.2,0.7-0.4,1.1-0.6,1.3c-0.3,0.2-0.7,0.3-1.3,0.3
				H41.8z M84.8,31.4c-1.7,0-3.5-0.2-5.1-0.6c-1.7-0.4-3-0.8-3.8-1.3c-0.5-0.3-0.9-0.6-1-0.9c-0.1-0.3-0.2-0.6-0.2-0.9v-1.7
				c0-0.7,0.3-1,0.8-1c0.2,0,0.4,0,0.6,0.1c0.2,0.1,0.5,0.2,0.8,0.3c1.1,0.5,2.4,0.9,3.7,1.2c1.3,0.3,2.6,0.4,4,0.4
				c2.1,0,3.7-0.4,4.9-1.1S91,24,91,22.6c0-0.9-0.3-1.7-0.9-2.3c-0.6-0.6-1.7-1.2-3.4-1.7L81.9,17c-2.4-0.8-4.2-1.9-5.3-3.4
				c-1.1-1.5-1.7-3.1-1.7-4.8c0-1.4,0.3-2.6,0.9-3.7c0.6-1.1,1.4-2,2.4-2.7c1-0.8,2.1-1.3,3.5-1.7S84.4,0,85.9,0
				c0.7,0,1.5,0,2.2,0.1c0.8,0.1,1.5,0.2,2.2,0.4c0.7,0.2,1.3,0.3,1.9,0.5c0.6,0.2,1.1,0.4,1.4,0.6c0.5,0.3,0.8,0.5,1,0.8
				c0.2,0.3,0.3,0.6,0.3,1.1v1.6c0,0.7-0.3,1.1-0.8,1.1c-0.3,0-0.7-0.1-1.3-0.4c-1.9-0.9-4-1.3-6.4-1.3c-1.9,0-3.4,0.3-4.4,0.9
				c-1,0.6-1.6,1.6-1.6,3c0,0.9,0.3,1.7,1,2.4c0.7,0.6,1.9,1.3,3.7,1.8l4.7,1.5c2.4,0.8,4.1,1.8,5.2,3.2c1,1.4,1.5,2.9,1.5,4.7
				c0,1.4-0.3,2.7-0.9,3.9c-0.6,1.1-1.4,2.1-2.4,2.9c-1,0.8-2.3,1.4-3.7,1.9C88,31.2,86.5,31.4,84.8,31.4z"/>
			<g id="Group" transform="translate(0.000000, 37.430760)">
				<linearGradient id="Path_2_" gradientUnits="userSpaceOnUse" x1="0.2232" y1="12.3727" x2="91.8682" y2="12.3727">
					<stop  offset="0" style="stop-color:#4AA9FB"/>
					<stop  offset="0.3541" style="stop-color:#4B8CF6"/>
					<stop  offset="0.763" style="stop-color:#4D70F1"/>
					<stop  offset="1" style="stop-color:#4D65EF"/>
				</linearGradient>
				<path id="Path" class="st1" d="M91.1,10.3c-11,8.1-27,12.4-40.7,12.4c-19.3,0-36.6-7.1-49.7-18.9c-1-0.9-0.1-2.2,1.1-1.5
					C16,10.5,33.5,15.5,51.5,15.5c12.2,0,25.6-2.5,37.9-7.8C91.3,6.9,92.9,8.9,91.1,10.3z"/>
				<linearGradient id="Path_3_" gradientUnits="userSpaceOnUse" x1="81.8753" y1="9.3401" x2="100.7084" y2="9.3401">
					<stop  offset="0" style="stop-color:#4AA9FB"/>
					<stop  offset="0.3541" style="stop-color:#4B8CF6"/>
					<stop  offset="0.763" style="stop-color:#4D70F1"/>
					<stop  offset="1" style="stop-color:#4D65EF"/>
				</linearGradient>
				<path id="Path_1_" class="st2" d="M95.6,5c-1.4-1.8-9.3-0.9-12.9-0.4c-1.1,0.1-1.2-0.8-0.3-1.5c6.3-4.4,16.6-3.1,17.8-1.7
					c1.2,1.5-0.3,11.8-6.2,16.8c-0.9,0.8-1.8,0.4-1.4-0.6C94.1,14.3,97.1,6.8,95.6,5z"/>
			</g>
		</g>
	</g>
</g>
</svg>
