<?xml version="1.0" encoding="utf-8"?>
<!-- Generator: Adobe Illustrator 25.2.3, SVG Export Plug-In . SVG Version: 6.00 Build 0)  -->
<svg version="1.1" id="Layer_1" xmlns="http://www.w3.org/2000/svg" xmlns:xlink="http://www.w3.org/1999/xlink" x="0px" y="0px"
	 viewBox="0 0 128 128" style="enable-background:new 0 0 128 128;" xml:space="preserve">
<style type="text/css">
	.st0{fill:url(#SVGID_1_);}
	.st1{fill:url(#SVGID_2_);}
</style>
<linearGradient id="SVGID_1_" gradientUnits="userSpaceOnUse" x1="7.9277" y1="64" x2="120.0723" y2="64">
	<stop  offset="0" style="stop-color:#4AA9FB"/>
	<stop  offset="0.3541" style="stop-color:#4B8CF6"/>
	<stop  offset="0.763" style="stop-color:#4D70F1"/>
	<stop  offset="1" style="stop-color:#4D65EF"/>
</linearGradient>
<path class="st0" d="M7.9,0l9.4,114.8L64.4,128l45.7-13.2l9.9-114.5L7.9,0z M59.5,110.8l-33-8.6V80.9l11.3,1.8v9.5l9.5,1.8V23.5
	h12.2V110.8z M100.2,59.2L97.9,104l-29.3,6.8v-14L88.4,90l1.1-18.5l-20.9,3v-51h33.8L100.2,37H81.5v22.2H100.2z"/>
<linearGradient id="SVGID_2_" gradientUnits="userSpaceOnUse" x1="111.4945" y1="63.1185" x2="62.3874" y2="63.958">
	<stop  offset="0" style="stop-color:#4AA9FB"/>
	<stop  offset="0.3541" style="stop-color:#4B8CF6"/>
	<stop  offset="0.763" style="stop-color:#4D70F1"/>
	<stop  offset="1" style="stop-color:#4D65EF"/>
</linearGradient>
<path class="st1" d="M64.4,10.9v106l37.9-11l8.2-94.8L64.4,10.9z M100.2,37H81.5v22.2h18.6L97.9,104l-29.3,6.8v-14L88.4,90l1.1-18.5
	l-20.9,3v-51h33.8L100.2,37z"/>
</svg>
