<svg id="Layer_1" data-name="Layer 1" xmlns="http://www.w3.org/2000/svg" xmlns:xlink="http://www.w3.org/1999/xlink" viewBox="0 0 300 300"><defs><style>.cls-1{fill:url(#linear-gradient);}.cls-2{fill:url(#linear-gradient-2);}.cls-3{fill:url(#linear-gradient-3);}</style><linearGradient id="linear-gradient" x1="146.44" y1="214.6" x2="300" y2="214.6" gradientUnits="userSpaceOnUse"><stop offset="0" stop-color="#4aa9fb"/><stop offset="0.35" stop-color="#4b8cf6"/><stop offset="0.76" stop-color="#4d70f1"/><stop offset="1" stop-color="#4d65ef"/></linearGradient><linearGradient id="linear-gradient-2" x1="0" y1="145.66" x2="203.89" y2="145.66" xlink:href="#linear-gradient"/><linearGradient id="linear-gradient-3" x1="193.05" y1="214.65" x2="253.71" y2="214.65" xlink:href="#linear-gradient"/></defs><path class="cls-1" d="M288.63,192.58c-6,.18-10.45-3-13.26-8.15-3-5.5-2.57-11,.62-16.41s1.79-10.67-3.25-13.59Q262,148.2,251.22,142a9.35,9.35,0,0,0-13,3.16c-.53.82-1,1.71-1.5,2.51-6.39,9.5-21.55,9.33-26.63-.28-4.06-7.67-8.63-8.88-16.14-4.47-5.88,3.45-11.67,7.17-17.88,9.89-7,3.06-9.3,8.57-5.24,15.2,3.35,5.48,3.64,11.11.46,16.65s-8,8.08-14.31,8c-6.82-.08-10.58,3.87-10.52,10.75.07,7.13.11,14.25,0,21.38-.07,8.48,2.86,11.56,11.36,11.94,6.11.27,10.92,3,13.75,8.51s2.78,10.78-.85,16a9.15,9.15,0,0,0,3,13.43q10.8,6.45,21.77,12.62c5.19,2.93,10.57,1.35,13.54-3.8,7-12.06,21.62-12,28.66.19,2.93,5,8.29,6.59,13.28,3.75q10.92-6.21,21.79-12.56A9.3,9.3,0,0,0,275.88,261c-3.6-5.12-3.56-10.44-.87-15.75,2.79-5.48,7.54-8.67,13.67-8.54,5.17.11,8.81-1.6,11.32-6V199.06C297.59,194.48,294,192.43,288.63,192.58Zm-7,22.31a25.67,25.67,0,0,0,0,3.83c-1.74.59-3.32,1.06-4.86,1.65a34.42,34.42,0,0,0-21.25,39.76c.48,2.2.23,3.4-1.91,4.28a46.58,46.58,0,0,0-4.71,2.66c-7-7.2-15.54-11.11-25.59-11.08s-18.36,3.91-25.42,11.08c-2.42-1.4-4.76-2.76-7.34-4.24,2.58-9.52,1.78-18.72-3.16-27.34s-12.51-14-22.08-16.58v-8.44c9.59-2.56,17.13-7.92,22.07-16.55s5.84-17.66,3.14-27.37l7.3-4.3c5.52,5.56,11.9,9.31,19.59,10.54,11.08,1.79,21-.88,29.28-8.41,1.92-1.74,3.17-1.74,5.2-.48,4.17,2.6,4.23,2.49,3.48,6.73a34.16,34.16,0,0,0,22.42,38.53C281,210.27,282.11,211.72,281.64,214.89Z"/><path class="cls-2" d="M187.26,38.71A74.38,74.38,0,0,0,79.32,30.6C64.12,44.34,55.84,61.73,55.1,82.19,54.08,110,65.83,131.7,88.47,148c-1.82.68-3.35,1.27-4.9,1.83C34.2,168-.12,217.23,0,269.86a13.36,13.36,0,0,0,2.09,6.77c2,3.22,5.53,3.54,9.09,3.54q68.87-.06,137.73,0a28.88,28.88,0,0,0,3.22-.12,9.07,9.07,0,0,0,7.91-7.83c.79-6.14-3.46-10.55-10.25-10.55h-131a7.91,7.91,0,0,1-.14-1.45c.35-2.71.6-5.44,1.13-8.12,8.59-42.71,33.37-71.65,74.36-86.3,20.47-7.31,41.53-7.42,62.6-2.26,3.37.82,6.39.46,9.09-1.76,3.46-2.84,4.09-6.88,1.91-12.37C207,125,215.49,73.59,187.26,38.71Zm-58,101.81A55.64,55.64,0,0,1,73.63,84.15C73.77,53.55,99,28.8,129.85,29c30.4.2,55.5,25.53,55.38,55.87A55.66,55.66,0,0,1,129.21,140.52Z"/><path class="cls-3" d="M223.57,184.37a30.29,30.29,0,1,0,30.14,30.26A30.28,30.28,0,0,0,223.57,184.37Zm-.21,41.88a11.69,11.69,0,1,1,11.69-11.65A11.57,11.57,0,0,1,223.36,226.25Z"/></svg>