<svg id="Layer_1" data-name="Layer 1" xmlns="http://www.w3.org/2000/svg" xmlns:xlink="http://www.w3.org/1999/xlink" viewBox="0 0 300 300"><defs><style>.cls-1{fill:url(#linear-gradient);}.cls-2{fill:url(#linear-gradient-2);}.cls-3{fill:url(#linear-gradient-3);}.cls-4{fill:url(#linear-gradient-4);}.cls-5{fill:url(#linear-gradient-5);}.cls-6{fill:url(#linear-gradient-6);}</style><linearGradient id="linear-gradient" x1="0.31" y1="150" x2="299.69" y2="150" gradientUnits="userSpaceOnUse"><stop offset="0" stop-color="#4aa9fb"/><stop offset="0.35" stop-color="#4b8cf6"/><stop offset="0.76" stop-color="#4d70f1"/><stop offset="1" stop-color="#4d65ef"/></linearGradient><linearGradient id="linear-gradient-2" x1="153.57" y1="127.5" x2="174.62" y2="127.5" xlink:href="#linear-gradient"/><linearGradient id="linear-gradient-3" x1="86.33" y1="138.56" x2="107.56" y2="138.56" xlink:href="#linear-gradient"/><linearGradient id="linear-gradient-4" x1="119.81" y1="144.67" x2="140.78" y2="144.67" gradientUnits="userSpaceOnUse"><stop offset="0" stop-color="#94ccfb"/><stop offset="0.13" stop-color="#93c5f9"/><stop offset="0.68" stop-color="#90a9f2"/><stop offset="1" stop-color="#8f9eef"/></linearGradient><linearGradient id="linear-gradient-5" x1="52.39" y1="151.21" x2="73.65" y2="151.21" xlink:href="#linear-gradient"/><linearGradient id="linear-gradient-6" x1="52.39" y1="84.77" x2="174.62" y2="84.77" xlink:href="#linear-gradient"/></defs><path class="cls-1" d="M295.43,269.63c-15.51-15.9-31.05-31.78-47.22-47-3-2.81-8.94-2.5-13.53-3.62-2.78-.66-5.82-.85-8.35-2.06-3.2-1.57-6-4-9.26-6.24,12.71-12.6-1.25-16-4.19-22.79,41-59.55,21.55-128.57-22.48-163C145-10.57,79.61-8,37.77,31.52-5.08,72-12.08,137,21.49,185,38,208.66,60.36,224.59,88.32,231.62c35.88,9,69.2,2.25,99.34-18.9,7.14,4.15,11.1,17.26,22.07,5.6a47.1,47.1,0,0,0,3,4c4.18,4.41,10,7.73,5.77,15.85-1.15,2.22,1.4,7.71,3.8,10.21,15.4,16,31.11,31.69,47,47.25,6,5.94,12.22,5.78,18.43.2a100.39,100.39,0,0,0,7.65-7.65C301,281.87,301.27,275.62,295.43,269.63ZM117,213.62c-52.32-.27-95-43.29-95-95.78a96,96,0,0,1,96.36-96.16c52.76.16,95.76,43.5,95.44,96.23A95.91,95.91,0,0,1,117,213.62Z"/><rect class="cls-2" x="153.57" y="87.65" width="21.05" height="79.7"/><rect class="cls-3" x="86.33" y="109.9" width="21.23" height="57.31"/><rect class="cls-4" x="119.81" y="122.34" width="20.97" height="44.65"/><rect class="cls-5" x="52.39" y="135.34" width="21.27" height="31.74"/><path class="cls-6" d="M174.56,63.53a9.42,9.42,0,0,0-2.17-5.38,10.08,10.08,0,0,0-13.51-1.54,9.82,9.82,0,0,0-2.91,13,1,1,0,0,1-.28,1.48q-9.8,8.22-19.53,16.51a1.43,1.43,0,0,1-1.57.31c-3-.89-5.85-.89-8.53.87a.89.89,0,0,1-1.2,0q-10.08-7.42-20.2-14.8a.89.89,0,0,1-.36-1.3A9.52,9.52,0,0,0,103,62.28,9.77,9.77,0,0,0,93,58.69a9.51,9.51,0,0,0-7.61,6.69,9.07,9.07,0,0,0,2.24,9.75,1.88,1.88,0,0,1,.23.33l-.76.69C80.37,82,73.63,87.91,67,93.84c-1,.91-2,1.53-3.36,1a1.09,1.09,0,0,0-.31,0,10,10,0,0,0-9.9,5.6,9.91,9.91,0,0,0,2,11.45,10.34,10.34,0,0,0,11.5,2,9.92,9.92,0,0,0,5.88-9.65,9,9,0,0,0-3.08-6.42c.26-.2.45-.32.62-.47q10.49-9.4,21-18.8a1.45,1.45,0,0,1,1.09-.28,11.25,11.25,0,0,0,7-.9.89.89,0,0,1,1,.11q10.18,7.61,20.39,15.18a.83.83,0,0,1,.34,1.13c-1,3-1.09,6,.46,8.76,2,3.61,5.47,4.89,9.27,5a9.89,9.89,0,0,0,8.32-15.18c-.37-.58-.32-.86.2-1.29q9.58-7.94,19.11-15.94c.79-.67,1.47-1.12,2.44-.45a1.25,1.25,0,0,0,.44.13A10.41,10.41,0,0,0,174.56,63.53Zm-112,46.6a5,5,0,1,1,5.14-5A4.93,4.93,0,0,1,62.58,110.13ZM94.81,73.68a5,5,0,1,1,5.11-5A4.92,4.92,0,0,1,94.81,73.68Zm36.27,28.72a5,5,0,1,1,5.15-5A5.08,5.08,0,0,1,131.08,102.4Zm33.75-32.46A5,5,0,1,1,170,65,5.09,5.09,0,0,1,164.83,69.94Z"/></svg>