<?xml version="1.0" encoding="utf-8"?>
<!-- Generator: Adobe Illustrator 25.2.3, SVG Export Plug-In . SVG Version: 6.00 Build 0)  -->
<svg version="1.1" id="Layer_1" xmlns="http://www.w3.org/2000/svg" xmlns:xlink="http://www.w3.org/1999/xlink" x="0px" y="0px"
	 viewBox="0 0 128 128" style="enable-background:new 0 0 128 128;" xml:space="preserve">
<style type="text/css">
	.st0{fill:url(#SVGID_1_);}
	.st1{fill:url(#SVGID_2_);}
	.st2{fill:url(#SVGID_3_);}
	.st3{fill:url(#SVGID_4_);}
	.st4{fill:url(#SVGID_5_);}
	.st5{fill:url(#SVGID_6_);}
	.st6{fill:url(#SVGID_7_);}
	.st7{fill:url(#SVGID_8_);}
	.st8{fill:url(#SVGID_9_);}
	.st9{fill:url(#SVGID_10_);}
	.st10{fill:url(#SVGID_11_);}
	.st11{fill:url(#SVGID_12_);}
	.st12{fill:url(#SVGID_13_);}
</style>
<desc>Created with Sketch.</desc>
<g id="Node_2_" transform="translate(0.000000, 24.000000)">
	<g>
		<linearGradient id="SVGID_1_" gradientUnits="userSpaceOnUse" x1="2.001953e-02" y1="32.5555" x2="27.61" y2="32.5555">
			<stop  offset="0" style="stop-color:#4AA9FB"/>
			<stop  offset="0.3541" style="stop-color:#4B8CF6"/>
			<stop  offset="0.763" style="stop-color:#4D70F1"/>
			<stop  offset="1" style="stop-color:#4D65EF"/>
		</linearGradient>
		<path class="st0" d="M27.6,27.1c0,6.2,0,12.4,0,18.6c0,0.3-0.1,0.6-0.2,0.8c-0.2,0.3-0.6,0.4-1.1,0.1c-2.1-1.2-4.2-2.4-6.4-3.6
			c-0.3-0.1-0.5-0.3-0.8-0.4c-0.5-0.3-0.8-0.8-0.8-1.4c0-2.9,0-5.7,0-8.6c0-0.8-0.3-1.3-1-1.6c-0.9-0.5-1.9-1-2.8-1.6
			c-0.6-0.3-1.1-0.3-1.7,0c-0.9,0.6-1.9,1.1-2.8,1.6c-0.6,0.3-0.9,0.8-0.9,1.5c0,2.8,0,5.7,0,8.5c0,0.8-0.3,1.3-1,1.7
			c-2.3,1.3-4.6,2.7-7,4c-0.6,0.3-1,0.2-1.3-0.4V26.5c0.2-0.5,0.6-0.8,1.1-1.1c3.9-2.2,7.8-4.5,11.8-6.8c0.6-0.4,1.2-0.4,1.8,0
			c4,2.3,8,4.6,12,6.9C27.3,25.9,27.6,26.4,27.6,27.1z"/>
		<linearGradient id="SVGID_2_" gradientUnits="userSpaceOnUse" x1="49.41" y1="63.4226" x2="77.52" y2="63.4226">
			<stop  offset="0" style="stop-color:#4AA9FB"/>
			<stop  offset="0.3541" style="stop-color:#4B8CF6"/>
			<stop  offset="0.763" style="stop-color:#4D70F1"/>
			<stop  offset="1" style="stop-color:#4D65EF"/>
		</linearGradient>
		<path class="st1" d="M77.5,56.9c0,4.4,0,8.8,0,13.1c0,1-0.4,1.8-1.3,2.3c-3.8,2.2-7.6,4.4-11.5,6.6c-0.2,0.1-0.5,0.2-0.8,0.3h-1.1
			c-1.3-0.7-2.6-1.5-3.9-2.2c-0.3-0.1-0.5-0.3-0.8-0.5s-0.2-0.3,0-0.4c0.6-0.3,1.1-0.5,1.7-0.8c0.2,0,0.4,0,0.5,0.1
			c0.9,0.5,1.7,1,2.6,1.5c0.3,0.2,0.5,0.2,0.8,0c3.7-2.1,7.4-4.3,11.2-6.4c0.3-0.1,0.4-0.3,0.4-0.7c0-4.3,0-8.6,0-12.9
			c0-0.3-0.1-0.5-0.4-0.7c-3.7-2.1-7.4-4.2-11.1-6.4c-0.3-0.2-0.6-0.2-0.9,0c-3.7,2.1-7.4,4.3-11.1,6.4c-0.3,0.2-0.4,0.4-0.4,0.7
			v12.8c0,0.3,0.1,0.5,0.4,0.7c0.9,0.5,1.8,1.1,2.7,1.6c0.3,0.2,0.7,0.3,1.1,0.4c1,0.2,1.9-0.5,1.9-1.5V58.1c0-0.5,0.1-0.5,0.5-0.5
			h1c0.5,0,0.6,0.1,0.6,0.6v6c0,2.4,0,4.7,0,7.1c0,0.5-0.1,1.1-0.3,1.5c-0.4,1.2-1.3,1.7-2.5,1.9c-1.2,0.2-2.3-0.2-3.4-0.7
			c-0.9-0.5-1.9-1.1-2.8-1.6c-0.9-0.5-1.4-1.3-1.4-2.4c0-4.4,0-8.7,0-13.1c0-1,0.4-1.8,1.3-2.3c3.8-2.2,7.6-4.4,11.4-6.6
			c0.8-0.5,1.7-0.5,2.6,0c3.8,2.2,7.6,4.4,11.4,6.6C77.1,55.1,77.5,55.8,77.5,56.9z"/>
		<linearGradient id="SVGID_3_" gradientUnits="userSpaceOnUse" x1="67.18" y1="25.3719" x2="94.86" y2="25.3719">
			<stop  offset="0" style="stop-color:#4AA9FB"/>
			<stop  offset="0.3541" style="stop-color:#4B8CF6"/>
			<stop  offset="0.763" style="stop-color:#4D70F1"/>
			<stop  offset="1" style="stop-color:#4D65EF"/>
		</linearGradient>
		<path class="st2" d="M94.8,23.8V6.3c0-0.7-0.3-1.3-0.9-1.6c-0.3-0.2-0.6-0.3-0.9-0.5c-2-1.1-4.1-2.3-6.1-3.4
			c-0.7-0.4-1.2,0-1.3,0.7V20c0,0.2,0.1,0.5-0.2,0.7c-0.3,0.2-0.5,0-0.8-0.1c-0.9-0.5-1.8-1-2.6-1.5c-0.6-0.4-1.2-0.4-1.9,0
			c-4,2.3-8,4.6-12,6.9c-0.6,0.4-0.9,0.9-0.9,1.6c0,4.6,0,9.2,0,13.8c0,0.7,0.3,1.2,0.9,1.6c4,2.3,8,4.6,12,6.9
			c0.6,0.4,1.2,0.4,1.9,0c3.9-2.2,7.8-4.5,11.7-6.7c0.9-0.5,1.2-1.1,1.2-2.1C94.8,35.2,94.8,29.5,94.8,23.8z M85.5,36.7
			c0,0.3-0.1,0.4-0.3,0.6c-1.3,0.7-2.6,1.5-3.9,2.3c-0.2,0.1-0.4,0.1-0.6,0c-1.3-0.8-2.6-1.5-3.9-2.3c-0.2-0.1-0.3-0.3-0.3-0.5v-4.6
			c0-0.2,0.1-0.4,0.3-0.5c1.3-0.8,2.6-1.5,3.9-2.2c0.3-0.2,0.5-0.1,0.7,0c1.3,0.8,2.6,1.5,3.9,2.2c0.2,0.1,0.3,0.3,0.3,0.6
			c0,0.8,0,1.5,0,2.2C85.5,35.2,85.5,35.9,85.5,36.7z"/>
		<linearGradient id="SVGID_4_" gradientUnits="userSpaceOnUse" x1="34.5" y1="34.2043" x2="60.79" y2="34.2043">
			<stop  offset="0" style="stop-color:#4AA9FB"/>
			<stop  offset="0.3541" style="stop-color:#4B8CF6"/>
			<stop  offset="0.763" style="stop-color:#4D70F1"/>
			<stop  offset="1" style="stop-color:#4D65EF"/>
		</linearGradient>
		<path class="st3" d="M60.8,42.2c-0.1,0.2-0.3,0.3-0.5,0.4c-4,2.3-8,4.6-12,6.9c-0.2,0.1-0.4,0.2-0.6,0.2l-8.8-16.1l-4.3-8
			c0,0,0.1,0,0.1-0.1c4-2.3,8-4.6,12-6.9c0.5-0.3,0.9-0.3,1.4-0.2l8.5,15.5L60.8,42.2z"/>
		<linearGradient id="SVGID_5_" gradientUnits="userSpaceOnUse" x1="34.15" y1="41.7859" x2="47.64" y2="41.7859">
			<stop  offset="0" style="stop-color:#4AA9FB"/>
			<stop  offset="0.3541" style="stop-color:#4B8CF6"/>
			<stop  offset="0.763" style="stop-color:#4D70F1"/>
			<stop  offset="1" style="stop-color:#4D65EF"/>
		</linearGradient>
		<path class="st4" d="M47.6,49.8c-0.4,0-0.8-0.1-1.2-0.3c-2.6-1.5-5.2-3-7.8-4.5c-1.3-0.8-2.6-1.5-3.9-2.3
			c-0.2-0.1-0.4-0.3-0.5-0.4l4.7-8.6L47.6,49.8z"/>
		<linearGradient id="SVGID_6_" gradientUnits="userSpaceOnUse" x1="33.66" y1="34.065" x2="38.85" y2="34.065">
			<stop  offset="0" style="stop-color:#4AA9FB"/>
			<stop  offset="0.3541" style="stop-color:#4B8CF6"/>
			<stop  offset="0.763" style="stop-color:#4D70F1"/>
			<stop  offset="1" style="stop-color:#4D65EF"/>
		</linearGradient>
		<path class="st5" d="M38.8,33.7l-4.7,8.6c-0.3-0.3-0.5-0.8-0.5-1.3c0-4.5,0-9.1,0-13.6c0-0.7,0.3-1.2,0.8-1.6L38.8,33.7z"/>
		<linearGradient id="SVGID_7_" gradientUnits="userSpaceOnUse" x1="47.91" y1="26.405" x2="60.73" y2="26.405">
			<stop  offset="0" style="stop-color:#4AA9FB"/>
			<stop  offset="0.3541" style="stop-color:#4B8CF6"/>
			<stop  offset="0.763" style="stop-color:#4D70F1"/>
			<stop  offset="1" style="stop-color:#4D65EF"/>
		</linearGradient>
		<path class="st6" d="M60.7,26.2l-4.4,8l-8.5-15.5c0.1,0,0.2,0.1,0.4,0.2c4,2.3,7.9,4.6,11.9,6.9C60.4,25.8,60.6,26,60.7,26.2z"/>
		<linearGradient id="SVGID_8_" gradientUnits="userSpaceOnUse" x1="56.36" y1="34.19" x2="61.1305" y2="34.19">
			<stop  offset="0" style="stop-color:#4AA9FB"/>
			<stop  offset="0.3541" style="stop-color:#4B8CF6"/>
			<stop  offset="0.763" style="stop-color:#4D70F1"/>
			<stop  offset="1" style="stop-color:#4D65EF"/>
		</linearGradient>
		<path class="st7" d="M61.1,34.2c0,2.3,0,4.6,0,6.9c0,0.4-0.1,0.8-0.3,1l-4.4-8.1l4.4-8c0.3,0.3,0.4,0.7,0.4,1.2
			C61.1,29.7,61.1,32,61.1,34.2z"/>
		<linearGradient id="SVGID_9_" gradientUnits="userSpaceOnUse" x1="100.8498" y1="34.1619" x2="128.4403" y2="34.1619">
			<stop  offset="0" style="stop-color:#4AA9FB"/>
			<stop  offset="0.3541" style="stop-color:#4B8CF6"/>
			<stop  offset="0.763" style="stop-color:#4D70F1"/>
			<stop  offset="1" style="stop-color:#4D65EF"/>
		</linearGradient>
		<path class="st8" d="M128.4,27.2c0,1.1,0,2.1,0,3.2c0,0.7-0.3,1.2-0.8,1.5c-2.4,1.4-4.8,2.8-7.2,4.2c-0.7,0.4-1.3,0.1-1.3-0.8
			c0-1.1,0-2.1,0-3.2c0-0.4-0.2-0.7-0.5-0.9c-1.2-0.7-2.4-1.4-3.6-2.1c-0.3-0.2-0.6-0.2-0.9,0c-1.2,0.7-2.4,1.4-3.6,2.1
			c-0.3,0.2-0.5,0.5-0.5,0.8c0,1.4,0,2.7,0,4.1c0,0.4,0.2,0.7,0.5,0.9c4,2.3,8,4.6,12,6.9c0.3,0.2,0.6,0.4,0.6,0.8
			c0,0.4-0.3,0.6-0.6,0.8c-2.4,1.3-4.8,2.6-7.1,4c-0.5,0.3-1.1,0.3-1.6,0c-4-2.3-8-4.6-12-6.9c-0.6-0.3-0.9-0.9-0.9-1.6v-6.9
			c0-2.2,0-4.5,0-6.8c0-0.8,0.3-1.4,1.1-1.8c3.9-2.3,7.9-4.5,11.8-6.8c0.6-0.4,1.2-0.4,1.9,0c4,2.3,8,4.6,11.9,6.9
			C128.2,26.1,128.4,26.6,128.4,27.2z"/>
		<linearGradient id="SVGID_10_" gradientUnits="userSpaceOnUse" x1="60.8861" y1="63.6176" x2="72.8519" y2="63.6176">
			<stop  offset="0" style="stop-color:#4AA9FB"/>
			<stop  offset="0.3541" style="stop-color:#4B8CF6"/>
			<stop  offset="0.763" style="stop-color:#4D70F1"/>
			<stop  offset="1" style="stop-color:#4D65EF"/>
		</linearGradient>
		<path class="st9" d="M72.8,65.9c0,1.5-0.5,2.6-1.9,3.4c-1.2,0.7-2.6,0.8-4.3,0.8c-0.8,0-2-0.1-3.1-0.5c-1.5-0.6-2.5-1.6-2.7-3.3
			c0-0.2,0-0.3,0-0.5c0-0.2,0.1-0.4,0.4-0.4c0.5,0,0.9,0,1.4,0c0.1,0,0.3,0.2,0.4,0.3c0.1,0.1,0.1,0.2,0.1,0.3
			c0.2,0.8,0.7,1.4,1.5,1.6c1.5,0.4,2.9,0.4,4.4,0c0.7-0.2,1.3-0.5,1.4-1.3c0.1-0.7-0.1-1.1-0.7-1.3c-0.6-0.2-1.3-0.3-1.9-0.5
			c-1.1-0.2-2.2-0.3-3.3-0.5C64,64.1,63.5,64,63,63.7c-2.2-0.9-2-3.8-0.9-5c0.7-0.8,1.6-1.2,2.6-1.4c1.6-0.3,3.1-0.3,4.7,0.1
			c1.7,0.4,2.7,1.5,3,3.2c0,0.1,0,0.3,0,0.4c0,0.3-0.1,0.5-0.4,0.5h-1.4c-0.2,0-0.4-0.1-0.4-0.3c-0.3-1.4-1.2-1.9-2.7-2
			c-0.8,0-1.5,0-2.3,0.1c-0.3,0-0.6,0.2-0.8,0.3c-0.6,0.3-0.9,0.9-0.7,1.5c0.1,0.2,0.4,0.5,0.6,0.6c0.9,0.2,1.9,0.4,2.8,0.6
			c1.1,0.2,2.2,0.4,3.3,0.7C71.9,63.4,72.8,64.3,72.8,65.9z"/>
		<linearGradient id="SVGID_11_" gradientUnits="userSpaceOnUse" x1="111.965" y1="34.1451" x2="117.3489" y2="34.1451">
			<stop  offset="0" style="stop-color:#4AA9FB"/>
			<stop  offset="0.3541" style="stop-color:#4B8CF6"/>
			<stop  offset="0.763" style="stop-color:#4D70F1"/>
			<stop  offset="1" style="stop-color:#4D65EF"/>
		</linearGradient>
		<path class="st10" d="M117.3,35.3c0,0.2-0.1,0.4-0.3,0.5c-0.7,0.4-1.4,0.8-2.1,1.2c-0.1,0.1-0.4,0.1-0.5,0
			c-0.7-0.4-1.4-0.8-2.1-1.2c-0.1-0.1-0.3-0.3-0.3-0.5c0-0.8,0-1.6,0-2.5c0-0.2,0.1-0.4,0.3-0.5c0.7-0.4,1.4-0.8,2.2-1.2
			c0.1-0.1,0.3-0.1,0.5,0c0.8,0.4,1.5,0.8,2.2,1.3c0.1,0.1,0.2,0.3,0.2,0.4c0,0.4,0,0.8,0,1.2C117.3,34.5,117.4,34.9,117.3,35.3z"/>
		<linearGradient id="SVGID_12_" gradientUnits="userSpaceOnUse" x1="79.25" y1="56.0438" x2="83.7601" y2="56.0438">
			<stop  offset="0" style="stop-color:#4AA9FB"/>
			<stop  offset="0.3541" style="stop-color:#4B8CF6"/>
			<stop  offset="0.763" style="stop-color:#4D70F1"/>
			<stop  offset="1" style="stop-color:#4D65EF"/>
		</linearGradient>
		<path class="st11" d="M81.5,53.8c-1.3,0-2.3,1-2.3,2.3c0,1.2,1,2.3,2.3,2.3c1.2,0,2.2-1,2.2-2.2C83.8,54.8,82.8,53.8,81.5,53.8z
			 M81.5,57.9c-1,0-1.8-0.8-1.8-1.9c0-1,0.8-1.8,1.8-1.8c1,0,1.9,0.8,1.9,1.9S82.5,57.9,81.5,57.9z"/>
		<linearGradient id="SVGID_13_" gradientUnits="userSpaceOnUse" x1="80.675" y1="56.0144" x2="82.49" y2="56.0144">
			<stop  offset="0" style="stop-color:#4AA9FB"/>
			<stop  offset="0.3541" style="stop-color:#4B8CF6"/>
			<stop  offset="0.763" style="stop-color:#4D70F1"/>
			<stop  offset="1" style="stop-color:#4D65EF"/>
		</linearGradient>
		<path class="st12" d="M82.2,56c0.2-0.2,0.3-0.5,0.1-0.8c-0.2-0.3-0.5-0.4-0.8-0.4c-0.2,0-0.4,0-0.6,0c-0.1,0-0.3,0.2-0.3,0.2
			c0,0.7,0,1.3,0,2c0,0.1,0.2,0.2,0.2,0.2c0.1,0,0.2-0.1,0.2-0.2c0-0.1,0-0.3,0-0.4c0-0.1,0.1-0.3,0.2-0.3c0.2,0,0.3,0.1,0.4,0.2
			c0.1,0.1,0,0.2,0.1,0.4c0.1,0.4,0.2,0.4,0.6,0.3C82.4,56.8,82.3,56.4,82.2,56z M81.5,55.8c-0.2,0-0.4-0.1-0.3-0.3
			c0-0.1,0.1-0.2,0.2-0.4c0,0,0.1,0,0.2,0c0.1,0.1,0.3,0.2,0.3,0.4C81.9,55.7,81.7,55.8,81.5,55.8z"/>
	</g>
</g>
</svg>
