<?xml version="1.0" encoding="utf-8"?>
<!-- Generator: Adobe Illustrator 25.2.3, SVG Export Plug-In . SVG Version: 6.00 Build 0)  -->
<svg version="1.1" id="Layer_1" xmlns="http://www.w3.org/2000/svg" xmlns:xlink="http://www.w3.org/1999/xlink" x="0px" y="0px"
	 viewBox="0 0 128 128" style="enable-background:new 0 0 128 128;" xml:space="preserve">
<style type="text/css">
	.st0{fill:url(#Shape_1_);}
</style>
<desc>Created with Sketch.</desc>
<g id="Icons_x2F_DevelopLogo_x2F_Android">
	<g id="Android" transform="translate(27.000000, 21.000000)">
		<linearGradient id="Shape_1_" gradientUnits="userSpaceOnUse" x1="0.2277" y1="43.2781" x2="73.107" y2="43.2781">
			<stop  offset="0" style="stop-color:#4AA9FB"/>
			<stop  offset="0.3541" style="stop-color:#4B8CF6"/>
			<stop  offset="0.763" style="stop-color:#4D70F1"/>
			<stop  offset="1" style="stop-color:#4D65EF"/>
		</linearGradient>
		<path id="Shape" class="st0" d="M60.5,29.1v34.5c0,3.1-2.4,5.6-5.5,5.7l-0.3,0l-3.8,0l0,11.8c0,2.9-2.2,5.2-5.1,5.3l-0.3,0
			c-2.9,0-5.2-2.2-5.3-5.1l0-0.3l0-11.8h-7.1l0,11.8c0,2.9-2.2,5.2-5.1,5.3l-0.3,0c-2.9,0-5.2-2.2-5.3-5.1l0-0.3l0-11.8l-3.8,0
			c-3.1,0-5.6-2.4-5.7-5.5l0-0.3V29.1H60.5z M5.6,28.2c2.9,0,5.2,2.2,5.3,5.1l0,0.3v22.2c0,3-2.4,5.3-5.3,5.3
			c-2.9,0-5.2-2.2-5.3-5.1l0-0.3V33.5C0.2,30.5,2.6,28.2,5.6,28.2z M67.8,28.2c2.9,0,5.2,2.2,5.3,5.1l0,0.3v22.2
			c0,3-2.4,5.3-5.3,5.3c-2.9,0-5.2-2.2-5.3-5.1l0-0.3V33.5C62.4,30.5,64.8,28.2,67.8,28.2z M51.4,0.2c0.1,0,0.2,0,0.4,0.1
			c0.3,0.2,0.5,0.6,0.3,0.9l-0.1,0.1l-3.8,6.8c7.1,3.7,11.9,10.6,12.1,18.6l0,0.5H12.9c0-8,4.7-15.1,11.7-18.9L25,8.1l-3.8-6.8
			c-0.2-0.4-0.1-0.8,0.3-1c0.1-0.1,0.2-0.1,0.4-0.1c0.2,0,0.5,0.1,0.6,0.3l0.1,0.1l3.8,6.9C29.5,6,33,5.3,36.7,5.3
			c3.5,0,6.7,0.7,9.7,1.9L47,7.4l3.8-6.9C50.9,0.3,51.2,0.2,51.4,0.2z M25.7,14.5c-1.1,0-2,0.9-2,2c0,1.1,0.9,2,2,2c1.1,0,2-0.9,2-2
			C27.7,15.4,26.8,14.5,25.7,14.5z M47.6,14.5c-1.1,0-2,0.9-2,2c0,1.1,0.9,2,2,2c1.1,0,2-0.9,2-2C49.6,15.4,48.7,14.5,47.6,14.5z"/>
	</g>
</g>
</svg>
