<svg id="Layer_1" data-name="Layer 1" xmlns="http://www.w3.org/2000/svg" xmlns:xlink="http://www.w3.org/1999/xlink" viewBox="0 0 300 300"><defs><style>.cls-1{fill:url(#linear-gradient);}.cls-2{fill:url(#linear-gradient-2);}.cls-3{fill:url(#linear-gradient-3);}.cls-4{fill:url(#linear-gradient-4);}.cls-5{fill:url(#linear-gradient-5);}.cls-6{fill:url(#linear-gradient-6);}.cls-7{fill:url(#linear-gradient-7);}</style><linearGradient id="linear-gradient" x1="264.85" y1="85.57" x2="300" y2="85.57" gradientUnits="userSpaceOnUse"><stop offset="0" stop-color="#4aa9fb"/><stop offset="0.35" stop-color="#4b8cf6"/><stop offset="0.76" stop-color="#4d70f1"/><stop offset="1" stop-color="#4d65ef"/></linearGradient><linearGradient id="linear-gradient-2" x1="264.88" y1="167.67" y2="167.67" xlink:href="#linear-gradient"/><linearGradient id="linear-gradient-3" x1="264.86" y1="126.58" y2="126.58" xlink:href="#linear-gradient"/><linearGradient id="linear-gradient-4" x1="0" y1="150" x2="253.16" y2="150" xlink:href="#linear-gradient"/><linearGradient id="linear-gradient-5" x1="241.43" y1="132.44" x2="253.1" y2="132.44" xlink:href="#linear-gradient"/><linearGradient id="linear-gradient-6" x1="46.87" y1="126.58" x2="58.62" y2="126.58" xlink:href="#linear-gradient"/><linearGradient id="linear-gradient-7" x1="70.31" y1="126.58" x2="82.07" y2="126.58" xlink:href="#linear-gradient"/></defs><path class="cls-1" d="M300,78v3.51c-1.81,1.54-3.41,3.44-5.46,4.53-7,3.7-14.05,7.16-21.14,10.59a5.81,5.81,0,0,1-6.92-9.12,11.91,11.91,0,0,1,2.9-1.9q10.17-5.13,20.36-10.2C294.79,72.84,296.89,73.38,300,78Z"/><path class="cls-2" d="M300,171.69v3.52c-3.12,4.57-5.21,5.1-10.27,2.57q-10.69-5.34-21.39-10.72a5.62,5.62,0,0,1-3.42-5.91,5.25,5.25,0,0,1,4.26-5,7.55,7.55,0,0,1,4.47.55c7.55,3.61,15.05,7.33,22.45,11.22C297.64,168.76,298.71,170.43,300,171.69Z"/><path class="cls-3" d="M300,124.82v3.52c-1.73,3.14-4.34,4.27-7.94,4.16-6.81-.22-13.63,0-20.45-.08-4.15,0-6.83-2.45-6.75-6s2.7-5.68,6.76-5.7c6.81,0,13.63.14,20.44-.08C295.66,120.54,298.27,121.67,300,124.82Z"/><path class="cls-4" d="M253.07,158.54a5.78,5.78,0,0,0-5.68-5.58,5.88,5.88,0,0,0-5.95,5.64c-.07.87,0,1.76,0,2.64v53H229.89V50.65h11.52c0,18.3,0,36.36,0,54.43,0,4.2,2.41,6.89,6,6.83s5.73-2.7,5.75-6.74c0-5.75,0-11.51,0-17.28q0-21.23,0-42.47c0-4.19-2.18-6.65-6.06-6.7q-11.58-.12-23.15,0c-3.52,0-5.76,2.41-5.91,6a62.49,62.49,0,0,1-.1,6.43,5.61,5.61,0,0,1-1.82,3.51c-5.24,3.74-10.54,7.42-16,10.81-20,12.4-40.8,23-63.79,28.55-6.18,1.5-12.52,2.29-19.09,3.46,0-2.47,0-4.12,0-5.76-.14-3.7-2.4-6.08-6.1-6.09q-40.71-.06-81.42,0c-3.86,0-6.09,2.38-6.2,6.28,0,1.74,0,3.48,0,5.25-.66.09-1,.16-1.4.2C9,98.59.09,108.23,0,121.32c0,7.62,0,15.24,0,22.84A22.81,22.81,0,0,0,5.2,158.78c4.61,5.73,10.77,8.45,18.26,8.92,0,1.07,0,2,0,3,0,7.05,1.57,8.62,8.58,8.62H48.29c.39,1.29.68,2.21.94,3.15Q58.61,215.21,68,248c2.43,8.49,8.92,13.33,17.72,13.38,2.73,0,5.46,0,8.2,0,14.41,0,22.23-10.4,18.28-24.24Q104.31,209.54,96.45,182c-.23-.8-.36-1.63-.58-2.68,5.25,0,10.22.06,15.18,0,3.71-.06,6-2.37,6.13-6.06.07-1.72,0-3.45,0-6,8.2,1.67,16,2.81,23.58,4.9,25.67,7.14,48.55,20,70.62,34.6,4.89,3.23,7.47,6.53,6.71,12.62-.58,4.66,2.09,6.85,7,6.87q10.26,0,20.51,0c5.61,0,7.56-2,7.56-7.59q0-25.49,0-51C253.12,164.6,253.22,161.56,253.07,158.54Zm-229.73-2.9a11.17,11.17,0,0,1-11.53-10.8q-.3-12.42,0-24.85c.14-6,5-10.48,11.53-10.9Zm81.93,11.82H35.33V97.51h69.94Zm112.47,29.31c-30.89-20.34-62.8-37.34-100.36-40.88V109c37.44-3.49,69.43-20.51,100.36-40.88Z"/><path class="cls-5" d="M253.1,132.31a5.84,5.84,0,1,1-5.82-5.71A5.9,5.9,0,0,1,253.1,132.31Z"/><path class="cls-6" d="M58.61,126.57c0,3.69,0,7.4,0,11.09-.05,3.91-2.54,6.56-6,6.47s-5.68-2.65-5.7-6.45q-.07-11.1,0-22.19c0-3.92,2.53-6.56,6-6.47s5.65,2.65,5.7,6.45S58.61,122.87,58.61,126.57Z"/><path class="cls-7" d="M82,137.85c0,3.72-2.53,6.3-5.86,6.28s-5.76-2.59-5.82-6.34,0-7.6,0-11.39,0-7.4,0-11.09S72.86,109,76.21,109,82,111.61,82,115.36Q82.1,126.61,82,137.85Z"/></svg>