<svg id="Php" xmlns="http://www.w3.org/2000/svg" xmlns:xlink="http://www.w3.org/1999/xlink" width="475.8" height="248.096" viewBox="0 0 475.8 248.096">
  <defs>
    <clipPath id="clip-path">
      <rect id="Rectangle_12018" data-name="Rectangle 12018" width="475.769" height="248.096" fill="#fff"/>
    </clipPath>
    <clipPath id="clip-path-2">
      <rect id="Rectangle_12019" data-name="Rectangle 12019" width="475.8" height="248.096" fill="#fff"/>
    </clipPath>
  </defs>
  <g id="Group_30648" data-name="Group 30648">
    <g id="Group_30647" data-name="Group 30647" clip-path="url(#clip-path)">
      <path id="Path_97363" data-name="Path 97363" d="M475.8,124.493c0,32.844-25.065,64.343-69.679,87.567S301,248.331,237.9,248.331,114.294,235.284,69.679,212.06,0,157.337,0,124.493,25.065,60.151,69.679,36.927,174.8.655,237.9.655,361.506,13.7,406.121,36.927,475.8,91.649,475.8,124.493" transform="translate(0 -0.489)" fill="#fff" fill-rule="evenodd" opacity="0.15"/>
    </g>
  </g>
  <g id="Group_30650" data-name="Group 30650">
    <g id="Group_30649" data-name="Group 30649" clip-path="url(#clip-path-2)">
      <path id="Path_97364" data-name="Path 97364" d="M263.27,288.865l26.072-131.986H349.63c26.07,1.63,39.107,14.664,39.107,37.478,0,39.107-30.959,61.919-58.661,60.289H300.748l-6.518,34.219Zm43.995-58.659,8.148-48.884h21.182c11.406,0,19.552,4.888,19.552,14.664-1.628,27.7-14.664,32.591-29.328,34.221Zm75.414,24.44L408.75,122.662h30.96l-6.517,34.217H462.52c26.073,1.63,35.848,14.664,32.59,30.96L483.7,254.646H451.116l11.406-60.289c1.629-8.148,1.629-13.036-9.776-13.036H428.3l-14.665,73.325Zm98.939,34.219,26.071-131.986h60.289c26.072,1.63,39.109,14.664,39.109,37.478,0,39.107-30.961,61.919-58.661,60.289H519.094l-6.517,34.219Zm43.993-58.659,8.148-48.884h21.184c11.406,0,19.552,4.888,19.552,14.664-1.628,27.7-14.664,32.591-29.328,34.221Z" transform="translate(-196.463 -91.535)" fill="#fff" fill-rule="evenodd"/>
    </g>
  </g>
</svg>
