<?xml version="1.0" encoding="utf-8"?>
<!-- Generator: Adobe Illustrator 25.2.3, SVG Export Plug-In . SVG Version: 6.00 Build 0)  -->
<svg version="1.1" id="Layer_1" xmlns="http://www.w3.org/2000/svg" xmlns:xlink="http://www.w3.org/1999/xlink" x="0px" y="0px"
	 viewBox="0 0 127 127" style="enable-background:new 0 0 127 127;" xml:space="preserve">
<style type="text/css">
	.st0{fill-rule:evenodd;clip-rule:evenodd;fill:url(#Shape_1_);}
</style>
<desc>Created with Lunacy</desc>
<g id="React_1_">
	<g id="React" transform="translate(10 16)">
		<linearGradient id="Shape_1_" gradientUnits="userSpaceOnUse" x1="0.9516" y1="47.5612" x2="106.8836" y2="47.5612">
			<stop  offset="0" style="stop-color:#4AA9FB"/>
			<stop  offset="0.3541" style="stop-color:#4B8CF6"/>
			<stop  offset="0.763" style="stop-color:#4D70F1"/>
			<stop  offset="1" style="stop-color:#4D65EF"/>
		</linearGradient>
		<path id="Shape" class="st0" d="M85.2,27.6C87.7,15.1,86.1,5,80.3,1.6c-5.5-3.2-14.6,0.1-23.7,8.1c-0.9,0.8-1.8,1.6-2.6,2.4
			c-0.6-0.6-1.2-1.1-1.8-1.6C42.6,2,33.1-1.6,27.3,1.8c-5.5,3.2-7.2,12.7-4.8,24.6c0.2,1.2,0.5,2.3,0.8,3.5
			c-1.4,0.4-2.7,0.8-3.9,1.2C8.1,35,1,41.1,1,47.5C1,54,8.6,60.6,20.3,64.6c0.9,0.3,1.9,0.6,2.9,0.9c-0.3,1.3-0.6,2.5-0.8,3.8
			c-2.2,11.7-0.5,20.9,5,24.1c5.7,3.3,15.2-0.1,24.5-8.2c0.7-0.6,1.5-1.3,2.2-2C55,84,56,84.9,57,85.8c9,7.7,17.9,10.9,23.4,7.7
			c5.7-3.3,7.5-13.2,5.1-25.4c-0.2-0.9-0.4-1.9-0.6-2.8c0.7-0.2,1.3-0.4,2-0.6c12.1-4,20-10.5,20-17.2c0-6.4-7.4-12.5-18.8-16.5
			c-1.1-0.4-2.3-0.7-3.4-1.1C84.8,29.1,85,28.4,85.2,27.6z M57.1,15.4c0.8-0.8,1.6-1.5,2.4-2.2C67.4,6.3,74.7,3.6,78,5.6
			c3.5,2,4.9,10.3,2.7,21.1c-0.1,0.7-0.3,1.4-0.5,2.1c-4.4-1-9.2-1.8-14.2-2.2C63.2,22.4,60.2,18.6,57.1,15.4z M29.6,5.7
			c-3.3,1.9-4.6,9.6-2.7,19.8c0.2,1.1,0.5,2.2,0.7,3.3c4.4-1,9.2-1.7,14.1-2.2c2.9-4.1,5.9-7.9,9-11.2c-0.5-0.5-1.1-1-1.6-1.5
			C40.9,6.6,33.1,3.6,29.6,5.7z M47.7,26.1c2.1-2.7,4.2-5.2,6.3-7.5c2.1,2.3,4.2,4.8,6.2,7.5C56,25.9,51.9,25.9,47.7,26.1z
			 M44.3,30.9c3.2-0.2,6.4-0.4,9.6-0.4c3.3,0,6.5,0.1,9.7,0.4c1.8,2.7,3.5,5.4,5.1,8.1c1.6,2.8,3.1,5.6,4.6,8.5
			c-1.4,2.9-2.9,5.8-4.6,8.6c-1.6,2.8-3.3,5.5-5.1,8.2c-3.1,0.2-6.4,0.3-9.7,0.3c-3.3,0-6.5-0.1-9.6-0.3c-1.8-2.7-3.6-5.4-5.2-8.2
			c-1.6-2.8-3.1-5.6-4.5-8.5c1.4-2.9,2.9-5.8,4.5-8.5l1.2-2.1C41.6,34.9,42.9,32.9,44.3,30.9z M38.5,31.4c-3.4,0.4-6.6,1-9.6,1.6
			c0.9,3,2,6,3.4,9.2c1-1.8,2-3.7,3-5.5C36.3,35,37.3,33.2,38.5,31.4z M72.6,36.7c-1-1.8-2.1-3.6-3.2-5.3c3.4,0.4,6.6,1,9.7,1.7
			c-0.9,2.9-2.1,6-3.4,9.1C74.7,40.4,73.7,38.6,72.6,36.7z M24.5,34.2c-1.2,0.3-2.4,0.7-3.6,1.1c-9.6,3.3-15.3,8.3-15.3,12.1
			c0,1.8,1.3,4,4,6.3c2.9,2.5,7.2,4.8,12.4,6.6c0.9,0.3,1.7,0.6,2.6,0.8c1.3-4.4,3.1-8.9,5.2-13.6C27.5,43,25.8,38.5,24.5,34.2z
			 M78.3,47.5c2.1-4.6,3.9-9,5.2-13.2c1.1,0.3,2.1,0.6,3.1,1c9.8,3.4,15.8,8.4,15.8,12.2c0,4.1-6.5,9.4-16.9,12.9
			c-0.6,0.2-1.2,0.4-1.8,0.6C82.3,56.7,80.5,52.2,78.3,47.5z M53.9,38c5.2,0,9.5,4.2,9.5,9.5c0,5.2-4.2,9.5-9.5,9.5
			c-5.2,0-9.5-4.2-9.5-9.5C44.5,42.2,48.7,38,53.9,38z M72.6,58.4c1.1-1.8,2.1-3.7,3.1-5.6c1.4,3.2,2.6,6.3,3.6,9.3
			c-3.1,0.7-6.4,1.3-9.9,1.7C70.5,62,71.6,60.2,72.6,58.4z M32.2,52.9c-1.3,3.2-2.5,6.3-3.4,9.4c3,0.7,6.3,1.2,9.8,1.6
			c-1.2-1.8-2.3-3.6-3.3-5.4C34.2,56.6,33.2,54.8,32.2,52.9z M80.5,66.4c-4.4,1-9.2,1.8-14.3,2.2c-2.9,4.2-5.9,8-8.9,11.3
			c0.9,0.9,1.8,1.7,2.7,2.4c7.7,6.6,14.8,9.1,18.2,7.2c1.6-0.9,2.8-3.2,3.5-6.6c0.7-3.8,0.6-8.6-0.5-14
			C80.9,68.1,80.7,67.3,80.5,66.4z M26.8,70.1c0.2-1.2,0.5-2.4,0.8-3.5c4.3,1,9.1,1.7,14.3,2.1c2.9,4.1,6,7.9,9.1,11.2
			c-0.7,0.6-1.3,1.3-2,1.9c-4.1,3.6-8.2,6.1-11.9,7.4c-3.3,1.2-5.9,1.2-7.4,0.3C26.3,87.6,24.9,80.1,26.8,70.1z M60.3,69
			c-2.1,0.1-4.2,0.1-6.4,0.1c-2.1,0-4.2,0-6.2-0.1c2.1,2.8,4.2,5.3,6.4,7.6C56.2,74.4,58.2,71.8,60.3,69z"/>
	</g>
</g>
</svg>
