<svg id="Layer_1" data-name="Layer 1" xmlns="http://www.w3.org/2000/svg" xmlns:xlink="http://www.w3.org/1999/xlink" viewBox="0 0 300 300"><defs><style>.cls-1{fill:url(#linear-gradient);}.cls-2{fill:url(#linear-gradient-2);}.cls-3{fill:url(#linear-gradient-3);}.cls-4{fill:url(#linear-gradient-4);}.cls-5{fill:url(#linear-gradient-5);}.cls-6{fill:url(#linear-gradient-6);}.cls-7{fill:url(#linear-gradient-7);}.cls-8{fill:url(#linear-gradient-8);}</style><linearGradient id="linear-gradient" x1="5.01" y1="119.31" x2="294.99" y2="119.31" gradientUnits="userSpaceOnUse"><stop offset="0" stop-color="#4aa9fb"/><stop offset="0.35" stop-color="#4b8cf6"/><stop offset="0.76" stop-color="#4d70f1"/><stop offset="1" stop-color="#4d65ef"/></linearGradient><linearGradient id="linear-gradient-2" x1="266.08" y1="188.99" x2="277.48" y2="188.99" xlink:href="#linear-gradient"/><linearGradient id="linear-gradient-3" x1="104.28" y1="189.02" x2="115.49" y2="189.02" xlink:href="#linear-gradient"/><linearGradient id="linear-gradient-4" x1="144.52" y1="203.19" x2="156.51" y2="203.19" gradientUnits="userSpaceOnUse"><stop offset="0" stop-color="#94ccfb"/><stop offset="0.13" stop-color="#93c5f9"/><stop offset="0.68" stop-color="#90a9f2"/><stop offset="1" stop-color="#8f9eef"/></linearGradient><linearGradient id="linear-gradient-5" x1="225.19" y1="203.19" x2="237.18" y2="203.19" xlink:href="#linear-gradient-4"/><linearGradient id="linear-gradient-6" x1="63.84" y1="203.17" x2="75.85" y2="203.17" xlink:href="#linear-gradient-4"/><linearGradient id="linear-gradient-7" x1="185.41" y1="228.08" x2="196.83" y2="228.08" xlink:href="#linear-gradient"/><linearGradient id="linear-gradient-8" x1="23.56" y1="228.07" x2="34.82" y2="228.07" xlink:href="#linear-gradient"/></defs><path class="cls-1" d="M294.86,68.93a22.45,22.45,0,0,0-5.15-12.76c-7.93-9.31-21.7-10.87-32.06-3.66a23.31,23.31,0,0,0-6.9,30.82c.93,1.65.65,2.4-.67,3.51Q226.86,106.37,203.75,126a3.45,3.45,0,0,1-3.73.74c-7-2.12-13.87-2.11-20.23,2.06a2.1,2.1,0,0,1-2.85-.09Q153,111.15,129,93.64c-1.25-.91-1.48-1.61-.84-3.08,3.72-8.75,3.06-17.14-3-24.59s-14.35-10.41-23.86-8.51c-8.93,1.78-15.23,7.16-18,15.87S82,89.84,88.58,96.46a4.85,4.85,0,0,1,.53.77c-.65.6-1.21,1.14-1.8,1.65-15.93,14-31.9,27.9-47.75,42-2.43,2.16-4.7,3.62-8,2.49a2.89,2.89,0,0,0-.72-.08c-10-.75-19.46,4.6-23.49,13.31a23.48,23.48,0,0,0,4.73,27.15,24.55,24.55,0,0,0,27.28,4.73,23.6,23.6,0,0,0,13.95-22.9A21.31,21.31,0,0,0,46,150.32c.62-.48,1.06-.78,1.46-1.14q24.89-22.31,49.79-44.59a3.45,3.45,0,0,1,2.58-.66,26.81,26.81,0,0,0,16.65-2.13,2.08,2.08,0,0,1,2.46.25q24.17,18,48.38,36a2,2,0,0,1,.81,2.68c-2.26,7-2.59,14.14,1.09,20.8,4.73,8.56,13,11.58,22,11.77s16.18-4.38,20.59-12.37,3.92-15.95-.86-23.62c-.86-1.39-.75-2,.48-3.06q22.73-18.84,45.32-37.82c1.89-1.59,3.5-2.66,5.81-1.08a3.09,3.09,0,0,0,1,.32C281,100.1,296.58,86.78,294.86,68.93ZM29.2,179.49a11.88,11.88,0,1,1,0-23.75,12.05,12.05,0,0,1,12.14,11.87C41.41,174.41,36.18,179.51,29.2,179.49ZM105.66,93a11.9,11.9,0,1,1,12.12-11.79C117.75,88,112.59,93,105.66,93Zm86,68.13a11.91,11.91,0,1,1,12.21-11.8A12.06,12.06,0,0,1,191.7,161.14Zm80.07-77A11.91,11.91,0,1,1,284,72.32,12.07,12.07,0,0,1,271.77,84.14Z"/><path class="cls-2" d="M277.48,246c0,3.86-2.24,6.05-6,5.94a5.19,5.19,0,0,1-5.26-4.55,16.38,16.38,0,0,1-.18-2.71q0-55.74,0-111.48a16.74,16.74,0,0,1,.1-2.35c.49-3.44,2.59-5,6.25-4.81a5.34,5.34,0,0,1,5,5.58q0,28.68,0,57.37Q277.48,217.52,277.48,246Z"/><path class="cls-3" d="M115.49,133.49v111c0,.72,0,1.45,0,2.18a4.86,4.86,0,0,1-3.16,4.85,6,6,0,0,1-6.46-1,5.13,5.13,0,0,1-1.57-4.28c0-5.51,0-11,0-16.53V133.44c0-.85,0-1.7,0-2.54.2-3.12,2.11-4.83,5.4-4.87s5.47,1.66,5.72,4.74C115.51,131.67,115.49,132.59,115.49,133.49Z"/><path class="cls-4" d="M156.51,203.22q0,21.08,0,42.15c0,4.63-3.51,7.27-7.91,6a5.17,5.17,0,0,1-4-4.64,18.61,18.61,0,0,1-.07-2.36V161.92c0-.54,0-1.09,0-1.63a5.46,5.46,0,0,1,5.66-5.61,5.87,5.87,0,0,1,6.26,5.32,18.83,18.83,0,0,1,0,2Q156.51,182.62,156.51,203.22Z"/><path class="cls-5" d="M237.17,203.31q0,21.06,0,42.14c0,4.6-3.62,7.23-8,5.93a5.22,5.22,0,0,1-3.9-4.54,12.07,12.07,0,0,1-.08-1.81q0-41.86,0-83.74c0-4.12,1.86-6.37,5.39-6.6a5.86,5.86,0,0,1,6.56,6.11c0,6.06,0,12.11,0,18.17Z"/><path class="cls-6" d="M75.84,245.5c0,3.87-2.37,6.2-6.08,6.17s-5.89-2.32-5.9-6.13q0-21.24,0-42.48t0-42.3c0-3.17,1.46-5.18,4.12-5.87A6.08,6.08,0,0,1,75.05,158a7.05,7.05,0,0,1,.77,3.12Q75.88,203.29,75.84,245.5Z"/><path class="cls-7" d="M196.81,245.66c0,3.54-2.17,5.65-5.65,5.64s-5.73-2.16-5.74-5.78c0-5.81,0-11.62,0-17.43s0-11.73,0-17.6c0-3.58,2.09-5.63,5.63-5.64s5.75,2.15,5.76,5.59Q196.86,228.05,196.81,245.66Z"/><path class="cls-8" d="M34.82,245.75c.08,5-4.78,6.46-8,5.12a4.91,4.91,0,0,1-3.2-5c0-5.92,0-11.85,0-17.78h0c0-5.8.08-11.61,0-17.42-.08-4.88,3.4-6.66,7.9-5.53,2.12.53,3.27,2.32,3.3,4.87.05,4.59,0,9.19,0,13.79C34.79,231.12,34.69,238.44,34.82,245.75Z"/></svg>