<?xml version="1.0" encoding="utf-8"?>
<!-- Generator: Adobe Illustrator 25.2.3, SVG Export Plug-In . SVG Version: 6.00 Build 0)  -->
<svg version="1.1" id="Layer_1" xmlns="http://www.w3.org/2000/svg" xmlns:xlink="http://www.w3.org/1999/xlink" x="0px" y="0px"
	 viewBox="0 0 128 128" style="enable-background:new 0 0 128 128;" xml:space="preserve">
<style type="text/css">
	.st0{fill-rule:evenodd;clip-rule:evenodd;fill:url(#Combined-Shape_1_);}
</style>
<desc>Created with Sketch.</desc>
<g id="Icons_x2F_DevelopLogo_x2F_Wp">
	<g id="Wp" transform="translate(21.000000, 21.000000)">
		<linearGradient id="Combined-Shape_1_" gradientUnits="userSpaceOnUse" x1="0.2186" y1="43.8449" x2="86.6291" y2="43.8449">
			<stop  offset="0" style="stop-color:#4AA9FB"/>
			<stop  offset="0.3541" style="stop-color:#4B8CF6"/>
			<stop  offset="0.763" style="stop-color:#4D70F1"/>
			<stop  offset="1" style="stop-color:#4D65EF"/>
		</linearGradient>
		<path id="Combined-Shape" class="st0" d="M43.4,0.4c23.8,0,43.2,19.5,43.2,43.5c0,24-19.4,43.5-43.2,43.5
			c-23.8,0-43.2-19.5-43.2-43.5C0.2,19.9,19.6,0.4,43.4,0.4z M43.4,2.4C20.7,2.4,2.2,21,2.2,43.8c0,22.9,18.5,41.5,41.2,41.5
			c22.7,0,41.2-18.6,41.2-41.5C84.6,21,66.2,2.4,43.4,2.4z M44,46.4l11.5,32c0.1,0.2,0.2,0.4,0.3,0.5c-3.9,1.4-8.1,2.2-12.5,2.2
			c-3.4,0-6.8-0.5-9.9-1.4l-0.7-0.2L44,46.4z M9.7,28.6l17.8,48.3c-12.4-6-21-18.6-21-33.2C6.5,38.2,7.7,33.1,9.7,28.6z M75.9,25.9
			c2.9,5.3,4.5,11.4,4.5,17.9c0,13.6-7.2,25.5-18,32l-0.4,0.2l11.3-32.9c2.1-5.3,2.8-9.6,2.8-13.4C76.2,28.4,76.1,27.1,75.9,25.9z
			 M43.6,6.5c9.6,0,18.3,3.7,24.9,9.7c-0.2,0-0.3,0-0.5,0c-3.6,0-6.2,3.2-6.2,6.6c0,3.1,1.7,5.6,3.6,8.7c1.4,2.5,3,5.6,3,10.2
			c0,3.1-1.1,6.6-2.6,11.5l-0.2,0.5L61.9,66L48.6,26.2c2.2-0.1,4.2-0.4,4.2-0.4c2-0.2,1.7-3.2-0.2-3.1c0,0-6,0.5-9.8,0.5
			c-3.6,0-9.7-0.5-9.7-0.5c-2-0.1-2.2,2.9-0.2,3.1c0,0,1.7,0.2,3.6,0.3l0.2,0L42.5,42l-8.1,24.3L21,26.2c2.2-0.1,4.2-0.4,4.2-0.4
			c2-0.2,1.7-3.2-0.2-3.1c0,0-6,0.5-9.8,0.5c-0.7,0-1.5,0-2.4,0C19.4,13.2,30.7,6.5,43.6,6.5z"/>
	</g>
</g>
</svg>
