<?xml version="1.0" encoding="UTF-8"?>
<svg id="Layer_2" data-name="Layer 2" xmlns="http://www.w3.org/2000/svg" xmlns:xlink="http://www.w3.org/1999/xlink" viewBox="0 0 196.61 260.23">
  <defs>
    <style>
      .cls-1 {
        fill: url(#linear-gradient);
      }
    </style>
    <linearGradient id="linear-gradient" x1="0" y1="130.11" x2="196.61" y2="130.11" gradientUnits="userSpaceOnUse">
      <stop offset="0" stop-color="#1cdae9"/>
      <stop offset="1" stop-color="#0075f2"/>
    </linearGradient>
  </defs>
  <g id="Layer_1-2" data-name="Layer 1">
    <path class="cls-1" d="M195.15,109.49c3.31-14.03,1.34-26.9-9.44-37.15-4.59-4.37-10.01-8.06-15.54-11.19-5.98-3.4-12.53-5.8-19.16-8.77,2.97-11.99,6.01-24.22,9.1-36.69-7.62-1.9-14.98-3.73-22.52-5.61-3.03,12.11-6.01,24.02-9.02,36.04-6.15-1.46-12.03-2.85-18.03-4.27,3.02-12.15,5.99-24.07,9.02-36.27-7.61-1.89-15.01-3.72-22.52-5.58-3.14,12.55-6.17,24.63-9.28,37.08-15.21-3.8-30.24-7.55-45.45-11.34-2.04,8.22-3.98,16.06-5.95,23.99,.74,.22,1.13,.34,1.53,.44,5.71,1.51,11.5,2.74,17.09,4.57,6.56,2.15,9.39,7.65,7.77,14.15-7.93,31.86-15.88,63.71-23.85,95.57-2.37,9.46-5.21,11.1-14.75,8.68-4.28-1.09-8.57-2.2-12.99-3.33-3.73,8.61-7.39,17.05-11.16,25.72,15.22,3.85,30.25,7.66,45.4,11.48-3.15,12.68-6.22,25.02-9.32,37.5,7.58,1.89,14.93,3.72,22.5,5.61,3.1-12.38,6.16-24.6,9.28-37.01,6.16,1.61,11.97,3.12,17.92,4.67-3.09,12.44-6.11,24.53-9.17,36.84,7.61,1.89,15.02,3.74,22.52,5.61,3.17-12.63,6.26-24.95,9.36-37.31,.66,.09,.99,.13,1.31,.19,11.32,2.04,22.68,3.53,34.21,2.78,15.07-.99,28.02-6.21,36.87-19.13,5.2-7.59,8.28-16.07,10-25.08,3.27-17.12-2.49-30.4-16.95-40-1.98-1.31-4.04-2.51-6.3-3.92,.66-.22,1.02-.36,1.4-.46,14.36-3.96,22.75-13.53,26.12-27.81Zm-50.74,67.85c-2.38,8.86-8.77,13.31-17.34,15.13-8,1.69-16.05,1.22-23.98-.23-9.3-1.71-18.51-3.91-28-5.96,4.21-16.9,8.29-33.28,12.47-50.02,15.27,3.68,30.47,6.42,43.9,14.52,2.04,1.23,3.99,2.67,5.79,4.23,6.91,5.96,9.56,13.41,7.16,22.33Zm-9.79-58.32c-9.84,1.63-19.42-.11-28.96-2.25-4.06-.91-8.08-2.06-12.44-3.19,3.75-15.05,7.46-29.92,11.22-45,12.29,2.78,24.48,5.07,35.34,11.46,5.59,3.29,10.25,7.53,11.89,14.13,2.98,11.94-4.53,22.79-17.05,24.85Z"/>
  </g>
</svg>