<?xml version="1.0" encoding="UTF-8"?>
<svg id="Layer_2" data-name="Layer 2" xmlns="http://www.w3.org/2000/svg" xmlns:xlink="http://www.w3.org/1999/xlink" viewBox="0 0 432.46 432.41">
  <defs>
    <style>
      .cls-1 {
        fill: url(#linear-gradient-2);
      }

      .cls-2 {
        fill: url(#linear-gradient-6);
      }

      .cls-3 {
        fill: url(#linear-gradient-5);
      }

      .cls-4 {
        fill: url(#linear-gradient-7);
      }

      .cls-5 {
        fill: url(#linear-gradient-3);
      }

      .cls-6 {
        fill: url(#linear-gradient);
      }

      .cls-7 {
        fill: url(#linear-gradient-4);
      }

      .cls-8 {
        fill: url(#linear-gradient-8);
      }
    </style>
    <linearGradient id="linear-gradient" x1="-41.6" y1="230.04" x2="420.01" y2="383.23" gradientUnits="userSpaceOnUse">
      <stop offset="0" stop-color="#1cdae9"/>
      <stop offset="1" stop-color="#0075f2"/>
    </linearGradient>
    <linearGradient id="linear-gradient-2" x1="1.71" y1="99.52" x2="463.33" y2="252.71" xlink:href="#linear-gradient"/>
    <linearGradient id="linear-gradient-3" x1="-17.37" y1="157.02" x2="444.25" y2="310.21" xlink:href="#linear-gradient"/>
    <linearGradient id="linear-gradient-4" x1="25.96" y1="26.46" x2="487.57" y2="179.65" xlink:href="#linear-gradient"/>
    <linearGradient id="linear-gradient-5" x1="294.81" y1="308.88" x2="135.49" y2="291.52" xlink:href="#linear-gradient"/>
    <linearGradient id="linear-gradient-6" x1="397.81" y1="178.18" x2="287.52" y2="167.97" xlink:href="#linear-gradient"/>
    <linearGradient id="linear-gradient-7" x1="133.45" y1="196.35" x2="26.2" y2="152.42" xlink:href="#linear-gradient"/>
    <linearGradient id="linear-gradient-8" x1="236.48" y1="54.48" x2="160.9" y2="27.93" gradientUnits="userSpaceOnUse">
      <stop offset="0" stop-color="#1cdae9"/>
      <stop offset=".23" stop-color="#15c2eb"/>
      <stop offset="1" stop-color="#0075f2"/>
    </linearGradient>
  </defs>
  <g id="Layer_1-2" data-name="Layer 1">
    <g>
      <path class="cls-6" d="M320.75,234.26c-1.7-2.47-4.86-2.89-7.97-.97-3.91,2.41-7.8,4.87-11.68,7.33-16.11,10.21-32.21,20.45-48.36,30.58-.78,.49-2.33,.56-3.12,.12-10.03-5.62-20-11.34-29.93-17.14-2.42-1.41-4.5-1.38-6.91,.03-9.92,5.8-19.9,11.51-29.92,17.15-.76,.42-2.22,.42-2.94-.04-19.83-12.45-39.6-24.99-59.4-37.5-.85-.54-1.75-1.09-2.7-1.42-2.5-.88-4.93,0-6.22,2.11-1.35,2.21-1.07,4.64,.86,6.51,.79,.76,1.72,1.39,2.66,1.98,14.27,8.99,28.55,17.97,42.81,26.96,4.23,2.67,8.42,5.37,12.65,8.07-.24,.36-.29,.54-.4,.6-9.75,5.59-19.46,11.24-29.27,16.71-2.64,1.47-3.82,3.42-3.81,6.35,.03,8.78-.01,17.55-.01,26.33,0,18.25,.06,36.5-.06,54.75-.03,3.79,1.37,6.21,4.68,7.99,6.52,3.51,12.92,7.24,19.35,10.92,17.37,9.94,34.72,19.9,52.09,29.85,2.2,1.26,4.38,1.11,6.54-.16,4.77-2.8,9.51-5.65,14.32-8.39,19.09-10.87,38.18-21.73,57.31-32.52,2.84-1.6,4.14-3.75,4.13-7-.05-27.11-.07-54.21-.01-81.32,0-3.16-1.11-5.36-3.87-6.89-5.67-3.13-11.29-6.32-16.91-9.53-4.24-2.43-8.44-4.92-12.99-7.58,3.74-2.33,7.2-4.47,10.63-6.64,13.32-8.41,26.63-16.83,39.94-25.25,2.37-1.5,4.83-2.91,7.08-4.58,2.67-1.99,3.14-4.96,1.45-7.42Zm-109.53,119.68c-.5,20.35-.18,40.73-.18,61.09,0,.82-.07,1.65-.13,2.92-5.8-3.29-11.21-6.34-16.6-9.42-10.64-6.07-21.28-12.16-31.93-18.25-4.21-2.41-8.39-4.88-12.65-7.19-1.53-.83-2.13-1.76-2.12-3.56,.07-20.11,.04-40.23,.04-60.35v-9.46c3.51,1.97,6.72,3.75,9.92,5.58,15.45,8.82,30.76,17.9,46.41,26.35,5.34,2.89,7.39,6.02,7.24,12.29Zm73.7-44.18c0,6.56,.01,12.67,0,18.79-.03,16.79-.11,33.58-.02,50.36,.01,2.31-.77,3.42-2.7,4.51-17.87,10.08-35.67,20.26-53.49,30.42-2.26,1.29-4.5,2.63-7.33,4.29,0-5.46,0-10.34,0-15.21,.03-18.07,.09-36.14,.03-54.21-.01-2.07,.66-3.17,2.43-4.18,19.62-11.14,39.18-22.35,58.77-33.55,.58-.33,1.18-.63,2.32-1.24Zm-6.73-9.65c.12,.07,.18,.25,.44,.58-4.87,2.81-9.7,5.63-14.56,8.4-14.2,8.07-28.55,15.89-42.53,24.33-4.13,2.49-6.79,2.28-10.76-.1-14.88-8.92-30.03-17.38-45.08-25.99-3.32-1.9-6.69-3.72-10.02-5.59-.57-.32-1.08-.73-1.83-1.24,5.45-3.13,10.66-6.12,15.87-9.1,10.04-5.74,20.08-11.48,30.12-17.22,4.95-2.83,9.87-5.71,14.88-8.42,.77-.41,2.16-.45,2.91-.03,9.86,5.54,19.64,11.22,29.47,16.81,10.34,5.89,20.72,11.71,31.08,17.57Z"/>
      <path class="cls-1" d="M432.44,257.2c-.18-3.32-.12-6.65-.12-9.97,.02-24.21,.03-48.42,.1-72.63,.01-2.58-.98-4.31-3.24-5.58-9.88-5.55-19.71-11.16-29.54-16.79-14.04-8.04-28.1-16.07-42.07-24.23-3.02-1.76-5.57-1.65-8.56,.12-9.53,5.63-19.21,11.02-28.78,16.59-1.37,.79-2.39,.91-3.69-.05-1.98-1.46-4.05-2.82-6.14-4.14-11.81-7.44-23.65-14.84-35.47-22.27-6.13-3.86-12.17-7.84-18.35-11.62-3.07-1.88-6.41-1.19-7.94,1.28-1.68,2.72-.77,5.71,2.46,7.76,6.46,4.1,12.95,8.18,19.44,12.26,10.1,6.34,20.21,12.66,30.3,19.01,2.33,1.46,4.6,3.02,7.01,4.62-.53,.47-.69,.67-.9,.78-9.77,5.56-19.54,11.12-29.33,16.64-2.09,1.18-3.46,2.78-3.46,5.25-.02,20.38-.05,40.77,.08,61.15,0,1.42,.92,3.13,1.95,4.17,1.53,1.55,3.64,1.69,5.7,.71,2.2-1.04,2.97-2.82,2.97-5.18-.03-16.46-.01-32.92,0-49.38,0-.7,.1-1.4,.17-2.4,7.8,4.45,15.27,8.7,22.72,12.97,12.78,7.33,25.54,14.7,38.36,21.96,1.57,.89,2.01,1.92,2,3.64-.05,22.01-.04,44.01-.04,66.01v3.56c-7.9-4.51-15.29-8.71-22.67-12.94-6.65-3.81-13.27-7.68-19.92-11.48-2.12-1.21-4.34-1.62-6.48-.03-1.92,1.44-2.72,3.57-1.82,5.65,.68,1.57,2.14,3.1,3.64,3.97,16.21,9.4,32.51,18.63,48.73,28,2.67,1.54,5.03,1.54,7.65-.03,5.63-3.36,11.32-6.63,17.02-9.88,18.19-10.39,36.38-20.78,54.63-31.08,2.65-1.49,3.74-3.44,3.58-6.42Zm-76.48-48.85c-1.87,1.33-3.27,1.12-5.22-.02-13.61-7.89-27.32-15.61-40.99-23.4-6.2-3.54-12.36-7.12-18.94-10.92,8.45-4.86,16.47-9.49,24.51-14.09,10.34-5.92,20.69-11.81,31.04-17.7,1.33-.76,2.81-1.33,3.99-2.27,2.28-1.83,4.22-1.08,6.42,.19,10.74,6.24,21.54,12.38,32.33,18.54,8.77,5.01,17.56,10,26.77,15.24-2.69,1.61-5.04,3.07-7.43,4.44-15.56,8.92-31.14,17.82-46.71,26.73-1.92,1.1-3.99,1.98-5.78,3.25Zm64.17,47.97c-9.88,5.54-19.69,11.19-29.52,16.81-9.53,5.46-19.07,10.93-28.6,16.39-.93,.53-1.86,1.05-3.03,1.71-.12-.85-.25-1.34-.25-1.81-.01-22.77-.03-45.53,.08-68.3,0-.97,.95-2.33,1.85-2.85,16.58-9.59,33.21-19.08,49.84-28.59,3.67-2.1,7.35-4.18,11.45-6.51v21.06c0,16.2-.02,32.39,.03,48.59,0,1.6-.32,2.63-1.84,3.49Z"/>
      <path class="cls-5" d="M183.93,108.03c-1.43-2.36-4.41-3.15-7.2-1.84-.92,.43-1.81,.95-2.67,1.5-19.43,12.3-38.86,24.59-58.26,36.94-1.34,.85-2.26,.83-3.64,.03-9.77-5.71-19.64-11.26-29.43-16.94-2.57-1.49-4.94-1.5-7.42,.09-1.58,1.02-3.21,1.94-4.84,2.88-22.19,12.67-44.36,25.35-66.59,37.96-2.68,1.51-3.94,3.44-3.88,6.55,.13,6.56,.05,13.13,.05,19.69C.06,215.42,.13,235.97,0,256.51c-.03,3.61,1.2,5.82,4.37,7.55,9.55,5.24,19,10.68,28.45,16.09,14.26,8.16,28.51,16.36,42.73,24.59,2.48,1.43,4.74,1.39,7.2-.05,7.06-4.12,14.17-8.15,21.26-12.21,9.53-5.46,19.09-10.86,28.58-16.4,3.1-1.81,3.85-4.9,2.19-7.65-1.55-2.57-4.63-3.23-7.63-1.51-9.39,5.37-18.74,10.8-28.11,16.19-4.7,2.7-9.42,5.34-14.34,8.12-.14-.69-.29-1.08-.29-1.47-.01-22.94-.02-45.88,.06-68.82,0-.79,.72-1.87,1.42-2.33,2.78-1.82,5.66-3.47,8.54-5.12,15.36-8.81,30.73-17.6,46.12-26.38,2.24-1.28,4.55-2.41,7.08-3.74v3.21c0,16.12-.02,32.24,0,48.35,0,3.69,2,5.83,5.29,5.85,3.15,.02,5.37-2.12,5.38-5.55,.04-20.3,.03-40.59,0-60.89,0-2.2-.97-3.93-2.93-5.04-2.74-1.56-5.48-3.1-8.21-4.66-7.37-4.23-14.74-8.46-22.68-13.03,3.96-2.49,7.48-4.69,10.99-6.91,9.95-6.25,19.9-12.5,29.84-18.78,5.54-3.5,11.08-7.01,16.58-10.59,2.78-1.82,3.53-4.79,2.02-7.3Zm-110.16,180.04v3.35c-9.88-5.67-19.24-11.05-28.61-16.42-10.94-6.26-21.87-12.52-32.85-18.71-1.28-.72-1.81-1.49-1.81-2.97,.05-22.75,.04-45.5,.04-68.24,0-.48,.06-.96,.12-1.84,4.85,2.76,9.41,5.34,13.96,7.94,15.52,8.87,31.01,17.78,46.58,26.57,1.86,1.05,2.62,2.14,2.61,4.34-.08,21.99-.05,43.98-.04,65.97Zm68.01-114.08c-8.58,4.9-16.84,9.63-25.11,14.34-12.05,6.87-24.09,13.76-36.18,20.56-.71,.4-2.01,.46-2.71,.08-7.75-4.25-15.47-8.58-23.14-12.98-9.07-5.2-18.09-10.51-27.13-15.75-3.51-2.03-7.05-4.01-10.97-6.24,5.63-3.2,10.88-6.17,16.11-9.15,14.93-8.52,29.84-17.07,44.81-25.51,.82-.47,2.34-.49,3.16-.04,7.07,3.88,14.05,7.93,21.06,11.91,13.23,7.52,26.47,15.04,40.1,22.78Z"/>
      <path class="cls-7" d="M295.47,50.26c.05-4.33-1.49-6.95-5.24-8.99-9.42-5.12-18.72-10.48-28.03-15.8-14.26-8.16-28.5-16.37-42.74-24.55-2.18-1.25-4.36-1.22-6.54,.03-3.91,2.25-7.83,4.47-11.74,6.71-19.89,11.37-39.75,22.76-59.67,34.07-3.07,1.74-4.49,3.98-4.47,7.59,.1,19.61-.02,39.22,.12,58.83,.01,1.67,.98,3.64,2.12,4.93,1.37,1.56,3.41,1.52,5.42,.58,2.08-.96,2.86-2.5,2.86-4.66,.03-16.37,.06-32.74,.09-49.11,0-.96,0-1.91,0-3.14,.8,.36,1.12,.48,1.4,.63,20.18,11.54,40.36,23.07,60.48,34.69,.78,.45,1.42,1.85,1.43,2.81,.1,9.04,.06,18.08,.06,27.12,0,14.07,0,28.14,0,42.82-1.24-.68-2.04-1.1-2.82-1.55-13-7.45-26.01-14.9-39.02-22.33-.88-.51-1.79-1.02-2.76-1.31-2.49-.74-5.28,.51-6.27,2.7-1.06,2.36-.24,5.36,1.99,6.78,1.86,1.19,3.79,2.29,5.71,3.39,14.94,8.53,29.92,17,44.82,25.6,2.51,1.45,4.65,1.52,7.14,.06,9.93-5.8,19.91-11.5,29.89-17.23,6.58-3.77,13.23-7.41,19.72-11.32,1.38-.83,2.6-2.46,3.15-3.99,.73-2.05-.07-4.11-2.02-5.34-2.27-1.43-4.52-.95-6.75,.34-13.42,7.74-26.87,15.46-40.31,23.17-.54,.31-1.16,.48-2.01,.82v-2.37c0-20.47,0-40.93-.01-61.4,0-8.22,.04-8.16,7.16-12.21,15.1-8.58,30.15-17.23,45.23-25.84,3.53-2.01,7.08-3.97,11-6.17v3.16c0,12.54,0,25.07,0,37.61,0,3.93-.07,7.85,.03,11.77,.07,2.94,2.19,4.99,4.99,5.1,2.82,.11,5.05-1.77,5.46-4.67,.11-.75,.07-1.53,.07-2.29,0-19.02-.1-38.04,.08-57.05Zm-24,1.48c-17.89,10.2-35.78,20.4-53.72,30.52-.76,.43-2.16,.41-2.93-.01-8.18-4.55-16.27-9.25-24.41-13.88-11.32-6.44-22.64-12.87-33.96-19.3-.86-.49-1.68-1.04-2.75-1.71,16.96-9.64,33.66-19.12,50.35-28.62,3.62-2.07,7.2-4.23,10.88-6.2,.72-.38,2-.44,2.68-.06,20.26,11.51,40.48,23.11,61.15,34.94-2.64,1.57-4.93,2.98-7.28,4.32Z"/>
      <path class="cls-3" d="M278.63,300.7c-4.87,2.81-9.7,5.63-14.56,8.39-14.2,8.07-28.55,15.89-42.53,24.33-4.13,2.49-6.79,2.28-10.76-.1-14.87-8.92-30.02-17.38-45.08-25.99-3.32-1.9-6.69-3.72-10.02-5.59-.57-.32-1.08-.73-1.83-1.24,5.45-3.12,10.66-6.12,15.88-9.1,10.04-5.74,20.08-11.48,30.11-17.22,4.95-2.83,9.87-5.71,14.88-8.42,.77-.42,2.16-.45,2.91-.03,9.86,5.54,19.64,11.22,29.47,16.81,10.35,5.88,20.72,11.71,31.08,17.57,.12,.07,.19,.24,.44,.58Z"/>
      <path class="cls-2" d="M290.81,174.01c8.45-4.86,16.47-9.49,24.51-14.09,10.34-5.92,20.69-11.81,31.05-17.7,1.33-.76,2.81-1.32,3.99-2.27,2.28-1.83,4.22-1.09,6.42,.2,10.74,6.24,21.54,12.38,32.33,18.54,8.77,5.01,17.56,10,26.77,15.24-2.69,1.61-5.04,3.07-7.43,4.44-15.56,8.92-31.14,17.83-46.71,26.73-1.92,1.1-3.99,1.98-5.77,3.25-1.87,1.33-3.27,1.11-5.22-.02-13.61-7.89-27.32-15.61-40.99-23.4-6.2-3.53-12.36-7.12-18.94-10.92Z"/>
      <path class="cls-4" d="M141.79,173.99c-8.58,4.9-16.84,9.62-25.11,14.34-12.05,6.87-24.09,13.76-36.17,20.55-.71,.4-2.01,.46-2.71,.08-7.76-4.25-15.47-8.58-23.15-12.98-9.07-5.2-18.08-10.51-27.13-15.75-3.51-2.03-7.05-4.01-10.97-6.24,5.63-3.2,10.88-6.17,16.11-9.15,14.93-8.52,29.84-17.07,44.81-25.51,.82-.46,2.34-.49,3.16-.04,7.07,3.88,14.05,7.93,21.07,11.91,13.23,7.52,26.47,15.04,40.1,22.79Z"/>
      <path class="cls-8" d="M278.76,47.42c-2.64,1.57-4.94,2.98-7.28,4.32-17.89,10.2-35.79,20.4-53.72,30.52-.75,.43-2.16,.41-2.92-.01-8.18-4.56-16.28-9.25-24.41-13.88-11.32-6.44-22.64-12.87-33.96-19.31-.86-.49-1.68-1.04-2.75-1.71,16.97-9.64,33.66-19.13,50.35-28.62,3.63-2.06,7.2-4.23,10.88-6.2,.72-.38,1.99-.44,2.67-.06,20.26,11.52,40.48,23.11,61.15,34.94Z"/>
    </g>
  </g>
</svg>