<?xml version="1.0" encoding="UTF-8"?>
<svg id="Layer_2" data-name="Layer 2" xmlns="http://www.w3.org/2000/svg" xmlns:xlink="http://www.w3.org/1999/xlink" viewBox="0 0 383.16 340.45">
  <defs>
    <style>
      .cls-1 {
        fill: url(#linear-gradient-2);
      }

      .cls-2 {
        fill: url(#linear-gradient-3);
      }

      .cls-3 {
        fill: url(#linear-gradient);
      }
    </style>
    <linearGradient id="linear-gradient" x1="0" y1="170.23" x2="383.16" y2="170.23" gradientUnits="userSpaceOnUse">
      <stop offset="0" stop-color="#1cdae9"/>
      <stop offset="1" stop-color="#0075f2"/>
    </linearGradient>
    <linearGradient id="linear-gradient-2" x1="44.49" y1="170.33" x2="158.14" y2="170.33" xlink:href="#linear-gradient"/>
    <linearGradient id="linear-gradient-3" x1="225" y1="170.4" x2="338.56" y2="170.4" xlink:href="#linear-gradient"/>
  </defs>
  <g id="Layer_1-2" data-name="Layer 1">
    <g>
      <path class="cls-3" d="M383.16,162.16v17.22c-1.5,7.02-2.53,14.19-4.59,21.05-13.02,43.34-55.47,73.58-99.91,71.42-47.81-2.31-86.99-34.98-96.01-80.68-1.97-9.96-1.93-20.3-3.02-30.45-3.64-33.7-30.81-62.49-64.17-68.11-43.83-7.39-83.64,20.35-91.89,64.02-7.74,40.92,20.4,82.28,61.96,90.79,5.46,1.11,11.11,1.46,16.69,1.8,18.46,1.13,32.35,11.87,35.66,28.96,1.4,7.25,.79,14.89,1.08,22.36,.04,1.11,.01,2.22,.01,4.15,4.64-3.46,8.77-6.53,13.24-9.86,4.51,5.92,8.91,11.7,13.54,17.78-5.65,4.33-11.06,8.48-16.49,12.61-6.35,4.84-12.65,9.74-19.1,14.43-1,.72-3.22,1.11-4.03,.51-12.05-8.87-23.96-17.93-35.89-26.96-.17-.13-.24-.41-.51-.9,4.26-5.65,8.59-11.4,13.23-17.55,4.34,3.25,8.57,6.42,13.89,10.4-.39-8.58-.13-16.17-1.26-23.54-.92-6.01-6.78-9.36-13.8-9.96-7.31-.62-14.71-1-21.86-2.49C37.43,260.35,4.85,223.89,.52,180.69c-5.58-55.62,34.17-104.97,89.59-111.22,53.54-6.05,103.22,31.73,111.2,84.81,1.29,8.6,1.25,17.39,2.16,26.06,4.27,40.33,42.17,71.88,82.66,68.92,37.93-2.77,67.73-29.67,73.64-66.47,6.58-40.94-21.18-81.04-62.15-89.39-6.43-1.31-13.1-1.48-19.67-2.08-16.41-1.52-29.51-12.54-32.77-28.62-1.25-6.15-.8-12.65-1.07-18.99-.09-2.23-.01-4.47-.01-7.6-4.65,3.5-8.74,6.58-13.12,9.88-4.53-5.92-8.9-11.64-13.44-17.58,.76-.71,1.4-1.41,2.14-1.98,11-8.4,22.06-16.73,32.99-25.22,2.04-1.59,3.33-1.63,5.42-.02,11.65,8.97,23.44,17.77,35.6,26.93-4.48,5.95-8.87,11.77-13.49,17.91-4.39-3.28-8.63-6.45-13.97-10.44,.38,8.58,.12,16.16,1.23,23.54,.9,6.01,6.75,9.4,13.76,10.01,7.31,.63,14.71,.99,21.86,2.48,42.28,8.77,74.63,44.67,79.41,87.67,.11,.97,.44,1.92,.67,2.87Z"/>
      <path class="cls-1" d="M143.39,181.47h14.75v-22.42h-14.85c-1.26-3-2.56-5.57-3.39-8.3-.32-1.08-.02-2.9,.73-3.68,2.9-3.05,6.1-5.81,8.97-8.47-5.68-5.69-10.77-10.8-16.71-16.76-3.31,3.74-6.6,7.45-9.72,10.96-3.06-1.29-5.69-2.16-8.05-3.5-1.11-.63-2.35-2.13-2.43-3.31-.3-4.07-.12-8.17-.12-12.43h-22.47c0,1.46-.22,2.84,.04,4.13,1.56,7.89-1.12,13-9.32,14.65-.35,.08-.7,.2-2,.58-3.01-3.36-6.3-7.04-9.28-10.37-5.48,5.49-10.62,10.63-16.15,16.17,2.72,2.58,5.79,5.31,8.63,8.28,.73,.76,1.26,2.41,.95,3.36-.95,2.93-2.35,5.71-3.73,8.91h-14.75v22.22h14.85c1.31,3.1,2.63,5.8,3.53,8.63,.32,.98-.01,2.67-.71,3.39-2.95,3.01-6.15,5.76-8.92,8.3,5.79,5.81,10.94,10.98,16.63,16.7,3.11-3.47,6.43-7.16,9.61-10.7,3,1.28,5.46,2.54,8.05,3.34,2.08,.63,2.68,1.7,2.61,3.76-.14,4.06-.04,8.13-.04,12.19h22.47c0-4.3-.12-8.39,.08-12.48,.06-1.07,.87-2.58,1.77-3.04,2.73-1.42,5.67-2.42,9.37-3.92,3.17,3.42,6.53,7.04,9.31,10.03,5.32-5.31,10.48-10.44,15.99-15.92-2.63-2.5-5.68-5.25-8.53-8.2-.69-.72-1.28-2.24-.99-3.07,1.03-3.01,2.46-5.9,3.82-9.03Zm-42.17,9.58c-11.43-.1-20.58-9.38-20.53-20.84,.04-11.41,9.4-20.71,20.75-20.63,11.39,.08,20.58,9.41,20.54,20.85-.03,11.42-9.39,20.71-20.76,20.62Z"/>
      <path class="cls-2" d="M333.17,159.16c-7,1.31-11.69-.85-12.87-8.32-.2-1.2-.06-2.94,.68-3.73,2.88-3.07,6.07-5.87,8.75-8.39-5.65-5.63-10.83-10.8-16.48-16.44-.97,1.16-2.29,2.51-3.34,4.05-3.84,5.6-8.32,7.09-14.45,3.21-1.76-1.11-2.57-1.87-2.52-3.84,.09-3.97,.03-7.93,.03-12.04h-22.47c0,3.13-.26,6.01,.06,8.82,.48,4.25-.38,7.19-5.2,8.01-1.77,.31-3.4,1.47-5.85,2.58-3.18-3.55-6.48-7.25-9.56-10.69-5.54,5.54-10.69,10.69-16.25,16.26,2.86,2.69,6,5.53,8.94,8.56,.66,.68,1.07,2.23,.78,3.1-1,2.93-2.37,5.73-3.74,8.93h-14.68v22.36h14.79c1.14,2.73,1.96,5.37,3.3,7.72,1.2,2.09,.66,3.31-.92,4.78-2.95,2.75-5.74,5.69-8.19,8.15,5.51,5.53,10.59,10.63,15.92,15.97,3.1-3.34,6.39-6.9,9.72-10.49,3.2,1.34,5.66,2.6,8.25,3.4,2.03,.63,2.74,1.63,2.67,3.72-.14,4.08-.04,8.16-.04,12.29h22.47c0-4.27-.12-8.36,.08-12.44,.05-1.09,.81-2.63,1.7-3.1,2.74-1.42,5.69-2.42,9.29-3.88,3.2,3.41,6.58,7.02,9.51,10.15,5.33-5.35,10.47-10.5,15.93-15.98-1.11-1.03-2.46-2.52-4.04-3.69-4.94-3.65-7.31-7.78-3.02-13.46,.07-.09,.09-.23,.11-.35,.34-2.23,1.56-2.98,3.84-2.87,4.05,.2,8.1,.06,12.19,.06v-22.46c-1.95,0-3.73-.26-5.39,.05Zm-51.43,31.88c-11.25,0-20.53-9.14-20.66-20.34-.12-11.64,9.14-21.12,20.64-21.12s20.52,9.16,20.66,20.36c.14,11.67-9.09,21.1-20.64,21.1Z"/>
    </g>
  </g>
</svg>