<?xml version="1.0" encoding="UTF-8"?>
<svg id="Layer_2" data-name="Layer 2" xmlns="http://www.w3.org/2000/svg" xmlns:xlink="http://www.w3.org/1999/xlink" viewBox="0 0 380.79 329.48">
  <defs>
    <style>
      .cls-1 {
        fill: url(#linear-gradient-2);
      }

      .cls-2 {
        fill: url(#linear-gradient-5);
      }

      .cls-3 {
        fill: url(#linear-gradient-3);
      }

      .cls-4 {
        fill: url(#linear-gradient);
      }

      .cls-5 {
        fill: url(#linear-gradient-4);
      }
    </style>
    <linearGradient id="linear-gradient" x1="-4.81" y1="69.54" x2="397.57" y2="253.37" gradientUnits="userSpaceOnUse">
      <stop offset="0" stop-color="#1cdae9"/>
      <stop offset="1" stop-color="#0075f2"/>
    </linearGradient>
    <linearGradient id="linear-gradient-2" x1="46.64" y1="-43.09" x2="449.03" y2="140.74" xlink:href="#linear-gradient"/>
    <linearGradient id="linear-gradient-3" x1="-7.42" y1="75.25" x2="394.97" y2="259.08" xlink:href="#linear-gradient"/>
    <linearGradient id="linear-gradient-4" x1="-22.82" y1="108.97" x2="379.56" y2="292.8" xlink:href="#linear-gradient"/>
    <linearGradient id="linear-gradient-5" x1="-22.98" y1="109.31" x2="379.4" y2="293.14" xlink:href="#linear-gradient"/>
  </defs>
  <g id="Layer_1-2" data-name="Layer 1">
    <g>
      <path class="cls-4" d="M320.34,157.79c-2.44,7.54-4.73,15.29-7.45,22.89-12.42,34.65-30.2,66.11-55.74,92.89-23.82,24.98-52.08,43.11-84.49,54.89-4.58,1.67-8.87,1.15-13.32-.51-61.1-22.82-102.95-65.71-129.58-124.4C15.07,171.15,6.32,137.11,2.24,101.83c-.92-7.97-1.62-15.97-2.17-23.97-.59-8.47,2.52-12.64,10.65-15.46,13.87-4.83,25.52-13.36,36.01-23.26,11.25-10.62,21.89-21.92,32.38-33.31C83.13,1.44,87.25-.35,93.18,.21c32.14,3.01,64.38,4.19,96.64,2.96C207.64,2.48,225.44,.8,243.26,0c2.82-.12,6.52,1.34,8.49,3.36,6.96,7.11,13.34,14.78,19.83,22.11-5.22,6.25-10.24,12.28-15.68,18.82-4.88-5.24-10.06-10.54-14.91-16.12-2.03-2.34-4.05-3.11-7.14-2.86-41.59,3.46-83.25,3.84-124.84,.53-9.6-.76-16.11,1.01-22.68,8.68-14.7,17.17-31.58,32.19-51.3,43.66-1.31,.76-2.68,1.44-4.03,2.14q-6.29,3.31-5.52,10.27c3.57,33.32,10.83,65.74,23.97,96.67,19.36,45.58,48.75,82.43,93.02,106.15,7.05,3.77,14.48,6.87,21.86,9.98,1.52,.64,3.8,.37,5.41-.27,48.8-19.24,83.62-53.64,106.68-100.12,7.22-14.54,12.2-30.19,18.18-45.34,.56-1.4,.98-2.86,1.42-4.13,8.06,1.4,15.91,2.77,24.33,4.24Z"/>
      <path class="cls-1" d="M321.2,22.86c-32.79-.06-59.37,26.18-59.48,58.71-.12,33.32,25.91,60,58.88,60.34,32.78,.34,60.08-26.48,60.18-59.11,.1-33.44-26.18-59.88-59.58-59.94Zm39.23,40.3c-.37,2.57-1.48,5.51-3.25,7.33-12.92,13.27-26.02,26.35-39.19,39.37-4.33,4.28-10.88,4.28-15.37,0-6.1-5.82-12.06-11.81-17.82-17.97-4.23-4.52-3.83-11.09,.45-15.35,4.19-4.15,10.95-4.41,15.4-.19,3.19,3.02,5.92,6.52,9.19,10.18,10.97-11.01,20.92-21.01,30.91-30.98,3.99-3.99,8.63-5.01,13.23-3.02,3.93,1.69,7.08,6.3,6.45,10.65Z"/>
      <path class="cls-3" d="M224.02,150.16c0-3.66-2.18-5.5-5.66-5.9-1.36-.16-2.73-.14-5.19-.26,0-6.15,.39-11.97-.07-17.72-2.37-30.06-33.97-50.03-62.18-39.45-19.23,7.21-30.58,23.59-30.96,44.71-.07,4.09,0,8.19,0,12.16q-10.61,1.56-10.61,11.74v41.93c0,7.22,1.5,8.72,8.74,8.72,30.58,0,61.15,0,91.74,0,2.77,0,5.54,.13,8.3-.05,3.68-.25,5.92-2.18,5.93-6.07,.02-16.6,.02-33.21-.02-49.82Zm-51.35,29.9c.81,3.07,1.5,6.17,2.19,9.28,.92,4.13,.37,4.78-4.02,4.83-.7,0-1.39,0-2.08,0h-2.08c-.92,0-1.75,0-2.51,0-1.32,.02-2.39,.03-3.24-.02-.3-.02-.57-.04-.82-.08-.12-.02-.24-.04-.35-.07-.22-.05-.42-.12-.59-.19-.17-.08-.32-.17-.45-.29-.03-.03-.07-.07-.09-.1-.04-.04-.07-.09-.11-.13-.07-.09-.13-.2-.17-.32-.02-.06-.04-.12-.07-.18-.03-.12-.07-.27-.08-.42-.02-.17-.02-.37-.02-.58,0-.08,0-.17,0-.26,0-.16,.02-.32,.04-.49,.02-.12,.03-.24,.05-.37,.03-.21,.07-.42,.12-.66,.02-.12,.05-.24,.07-.37,.04-.21,.09-.43,.14-.66,.04-.16,.08-.33,.12-.51,.02-.11,.05-.22,.08-.33,.05-.22,.11-.44,.17-.68,.14-.58,.31-1.2,.49-1.89,.06-.22,.12-.45,.18-.67,.43-1.59,.61-3.26,1.05-4.86,.94-3.4,1.41-6.28-1.61-9.4-3.03-3.12-1.82-8.6,1.55-11.54,3.56-3.12,8.58-3.11,12.1,0,3.36,2.98,4.55,8.44,1.52,11.56-3.03,3.11-2.5,6-1.6,9.39Zm25.76-36.18h-63.25c-.58-12.41-1.37-24.42,7.77-34.36,8.65-9.39,22.52-13.14,34.12-8.82,12.99,4.83,21.1,15.9,21.35,29.24,.08,4.54,0,9.09,0,13.95Z"/>
      <path class="cls-5" d="M158.19,191.54c0,.09,0,.17,0,.26,0,0,0,0,0-.01,0-.08,0-.17,0-.25Z"/>
      <path class="cls-2" d="M158.19,191.8c0,.21,0,.4,.02,.58-.02-.17-.03-.37-.02-.58Z"/>
    </g>
  </g>
</svg>